/* XPM */
static char *d5067566a2aa492ec2176c498a763d65GDWaPKucUuYZ1Ovx[] = {
/* columns rows colors chars-per-pixel */
"64 64 237 2 ",
"   c None",
".  c #391E04",
"X  c #372602",
"o  c #3B2502",
"O  c #3D2B03",
"+  c #3D2D0B",
"@  c #362906",
"#  c #3D320D",
"$  c #3C2D12",
"%  c #362B14",
"&  c #3D3213",
"*  c #3C331A",
"=  c #431D00",
"-  c #442502",
";  c #432B02",
":  c #4A2C01",
">  c #452A07",
",  c #592D01",
"<  c #473209",
"1  c #543403",
"2  c #5A3906",
"3  c #443313",
"4  c #453916",
"5  c #44351D",
"6  c #4B3B1C",
"7  c #453A1C",
"8  c #4C3710",
"9  c #673E07",
"0  c #703C07",
"q  c #453B24",
"w  c #493C24",
"e  c #473720",
"r  c #5B410E",
"t  c #4E411F",
"y  c #5A4415",
"u  c #55431B",
"i  c #584417",
"p  c #674207",
"a  c #74450A",
"s  c #744B0C",
"d  c #7D4809",
"f  c #634315",
"g  c #6A4C1A",
"h  c #644817",
"j  c #734D18",
"k  c #77561B",
"l  c #71500B",
"z  c #4B4224",
"x  c #474125",
"c  c #544629",
"v  c #564D38",
"b  c #544D39",
"n  c #634C24",
"m  c #6C5628",
"M  c #755826",
"N  c #675733",
"B  c #735D36",
"V  c #7A612D",
"C  c #726233",
"Z  c #655B45",
"A  c #766542",
"S  c #4F5343",
"D  c #844B09",
"F  c #84530B",
"G  c #855A0C",
"H  c #885007",
"J  c #845A15",
"K  c #955C15",
"L  c #8B6215",
"P  c #9C6315",
"I  c #9B6912",
"U  c #BF7E0D",
"Y  c #AC6A16",
"T  c #B86F16",
"R  c #A77317",
"E  c #B97917",
"W  c #AE690C",
"Q  c #866927",
"!  c #997126",
"~  c #846B38",
"^  c #8A723B",
"/  c #9B7C34",
"(  c #9C7B3A",
")  c #93783B",
"_  c #A87C29",
"`  c #AB7223",
"'  c #A55D10",
"]  c #C27F19",
"[  c #866E46",
"{  c #967944",
"}  c #87754E",
"|  c #BC850E",
" . c #AF811A",
".. c #B98014",
"X. c #B4831A",
"o. c #B88320",
"O. c #A68638",
"+. c #B28C3A",
"@. c #B29236",
"#. c #C58415",
"$. c #DE8C14",
"%. c #DA971C",
"&. c #E58D01",
"*. c #EB8D02",
"=. c #E88B0A",
"-. c #F28605",
";. c #E59303",
":. c #EC9303",
">. c #E5940B",
",. c #EB940B",
"<. c #EC9D0A",
"1. c #EC9A08",
"2. c #F29405",
"3. c #F49D0B",
"4. c #F99E0D",
"5. c #F29908",
"6. c #E69511",
"7. c #EA9A15",
"8. c #E6991C",
"9. c #E89818",
"0. c #F49E12",
"q. c #F59812",
"w. c #DAA113",
"e. c #EFA10D",
"r. c #F3A20D",
"t. c #FBA20E",
"y. c #FCAC0E",
"u. c #F7AC0E",
"i. c #F8B20C",
"p. c #EEA51B",
"a. c #EAA318",
"s. c #F4A412",
"d. c #FCA512",
"f. c #F5AC14",
"g. c #FCAB13",
"h. c #F4A31B",
"j. c #F5AC1B",
"k. c #FAAC1A",
"l. c #FFA719",
"z. c #FDB315",
"x. c #FDBA15",
"c. c #FDB51C",
"v. c #F6BA1D",
"b. c #FDBA1D",
"n. c #F7B318",
"m. c #C58A25",
"M. c #DA9825",
"N. c #C99026",
"B. c #E79D22",
"V. c #D9A735",
"C. c #EAA325",
"Z. c #EEA22A",
"A. c #E9A728",
"S. c #F4A520",
"D. c #F4AC22",
"F. c #FAAD21",
"G. c #F4AB2B",
"H. c #FDB523",
"J. c #F5BB25",
"K. c #FCBA22",
"L. c #FBB62A",
"P. c #F6BC2C",
"I. c #FBBB2B",
"U. c #F4B426",
"Y. c #F0AF33",
"T. c #F4B433",
"R. c #F6BE33",
"E. c #FBBD33",
"W. c #F5BD3E",
"Q. c #FBBD3B",
"!. c #FBB638",
"~. c #E7B432",
"^. c #FBC22C",
"/. c #F3C02C",
"(. c #F4C234",
"). c #FBC134",
"_. c #F6C33B",
"`. c #FBC43D",
"'. c #FBC93C",
"]. c #9C844C",
"[. c #998756",
"{. c #A68A45",
"}. c #B38E43",
"|. c #AE924A",
" X c #B39244",
".X c #B4944A",
"XX c #B99544",
"oX c #AC9352",
"OX c #B49753",
"+X c #BEA77B",
"@X c #C29D4B",
"#X c #C6A358",
"$X c #D3AC5B",
"%X c #D5B45C",
"&X c #D1AA4A",
"*X c #F4BD44",
"=X c #FABD42",
"-X c #F1BD4A",
";X c #E3B44C",
":X c #D8B766",
">X c #CFB274",
",X c #E5BE63",
"<X c #EDC143",
"1X c #F5C344",
"2X c #FBC543",
"3X c #FCCA44",
"4X c #FBC54B",
"5X c #FCCA4B",
"6X c #F4C44A",
"7X c #FED24D",
"8X c #E8C45D",
"9X c #FAC652",
"0X c #FCCC53",
"qX c #FDCD5A",
"wX c #F4C752",
"eX c #FDD254",
"rX c #FED25C",
"tX c #F6D15A",
"yX c #DEC678",
"uX c #EBC56A",
"iX c #EDCA6B",
"pX c #E6C568",
"aX c #FDCF64",
"sX c #F4CD67",
"dX c #FDD464",
"fX c #FDD865",
"gX c #FCD46A",
"hX c #FED96C",
"jX c #FBD572",
"kX c #FAD778",
"lX c #EBC775",
"zX c #DFC587",
"xX c #F8DC98",
"cX c #EFD290",
"vX c #FAE19E",
"bX c #F3DBA3",
"nX c #FDE3A9",
/* pixels */
"                                                                                                                                ",
"                                          & # # # # # & & & # # # & & * * < < * *                                               ",
"                                          O ; ; O ; ; ; ; ; O ; ; ; O O X + @ # #                                               ",
"                                      x B |..X.X.X.X X.X.X XXXXX X.XXX|.n @ i O.OX[ t b                                         ",
"                                    e X f iXhXgXfXhXhXjXhXgXfXfXgXgXdXjXV o h 8XkX) X *                                         ",
"                                    [ Q _ 6X4X4X3X7XdXdXqX5X5X3X5X5X4X1XX.G L O.}.( ~ ~ A                                       ",
"                                3 > OXkXqXI.I.I.J.(.tXeX5XI.I.K.K.I.R.K.i.f.#.9 = ( kX:Xy > Z                                   ",
"                                n f @XrX3Xb.H.I.)._.7X5X`.L.b.b.b.b.J.b.g.s.%.d 9 / :X#XM i A                                   ",
"                          w 3 V :XpX_./.K.u.k.Q.rX0X`.).K.K.c.b.b.b.x.b.K.L.F.a.M.L 2 p $XlX{.& *                               ",
"                          6 - Q sXrX_.v.b.f.D.2XrX5XE.b.b.b.b.K.b.b.x.b.L.H.z.y.U.P , 2 $XiX{.< 5                               ",
"                      q i oX#XV.1X`.^.b.K.3X5X3X_.^./.v.b.b.K.K.K.K.b.b.H.K.b.x.H.M.m.R M m } +X>XZ q v                         ",
"                      + : $XfX7XI.K.K.K._.eXrX3XJ.b.b.x.b.K.H.H.b.x.v.x.b.b.b.b.b.v.j.w.9 = [ nXvXm O 6                         ",
"                    [ ) _ ;X`.^.v.b.).3X6X4X`.H.s.s.u.r.t.0.0.s.u.u.b.b.b.b.b.v.b.z.y.p.W I ! [.[.( ( ) Z Z                     ",
"                6 . ^ kXgX1XJ.b.b.J.3XrXeXE.H.3.&.&.*.*.*.*.*.*.&.<.b.H.b.c.b.b.v.b.b.H.j.j.R O # #XkX#X# &                     ",
"                M j +.0X3X^.n.I.E._.3X0X2Xc.y.t.2.2.2.2.2.*.q.9.a.C.k.k.c.b.b.b.b.I.`.^.U.T.X.a s  X$XoXm N }                   ",
"            % i $XkX6XP.K.b.v.).qXqX2XE.F.;.;.r.d.t.t.t.y.d.F.2X0X*X>.;.j.H.b.c.K.4XrXdXdXtX2XZ.M.s O M bXbXA & q               ",
"          7 @ i pXfX'.K.K.I.P.`.eX7XQ.H.k.,.;.3.y.y.y.g.g.f.D.'.0X*X%.>.j.H.H.K.P.5XdXgXdXdX=Xk.C.p X B bXbX~ X 5               ",
"          6 @ r %XdX3X^.K.3X0X3X).E.p.1.2.4.t.g.c.c.c.b.c.H.H.I.Q.2X9X4XS.,.p.4XqXrXaXgXgXdX=Xk.A.a o B bXxX^ o 5               ",
"          i O r %XdX1X/./.0XdX5XI.H.7.&.:.d.y.g.b.b.b.K.H.b.b.K.I.Q.rXqXZ.>.B.qXjXgXgXdXdXrX=Xk.C.a - M cXxX~ o 3               ",
"        v { {.+.-X_.3X5X0X1X`.L.s.0.r.3.4.g.z.b.K.b.b.K.b.b.b.b.K.I.`.`.W.W.T.G.Y.-XgXrX6X2XL.b.j.E R I ^ ) / }.].B N           ",
"      5 O O.kXdXW.J._.rXdX_.b.f.:.*.4.d.g.c.b.b.K.b.b.b.b.b.x.x.b.K.b.R.wXfX3X2.&.Y.gXeX_.K.b.z.x.f.j.o.: ;  XcX:X< @ c         ",
"      & - O.fXrX5X'.'.3X3X/.b.l.*.*.t.t.g.c.b.b.b.K.K.K.K.K.x.x.b.I.Q.2XsXfX4Xq.=.G.0X4X!.H.b.b.b.i.y.#.< : +.hX%X1 + x         ",
"      $ o O.fXdXrXrX3XJ.v.b.K.k.*.*.t.y.g.c.b.b.b.b.b.K.K.b.b.b.K.Q.eXdXgXfX-X8.=.h.E.I.L.b.b.K.K.y.y.#.; : }.hX%X1 @ z         ",
"      N n |.gXdXrXaX4XI.b.b.F.d.;.:.t.g.z.b.b.b.K.b.b.K.K.b.K.K.I.`.dXfXfXfX9XC.9.s.n.v.c.z.x.J.I.y.y.#.2 2 +.,X#Xh u N         ",
"v e B >X:XuXgXrX).).I.K.c.1.:.4.t.y.g.c.b.b.b.b.b.b.K.K.K.b.I.4XqXdXdXgXgXgXsXqX5XG.>.<.j.x.x.b.K.b.c.j.%.%.L 2 M >XzX].& w     ",
"c @ g pXjXgXrX5XI.K.K.b.c.1.&.2.t.g.c.b.K.b.b.b.b.b.b.K.K.J.E.0XdXgXhXfXdXdXdXrXqXY.$.>.D.b.n.b.b.K.b.c.g.s.G X c cXnX{ X 4     ",
"w X g pXgX5X_.).K.K.k.<.5.t.r.d.k.c.b.K.K.K.b.K.b.b.b.b.^.5X5XeXrXgXgXdX0X1X_._.2X=X=X!.h.<.s.b.b.K.b.c.g.h.F o h cXxX{.X 4     ",
"7 X g iXdX2XJ.H.J.b.s.*.*.4.g.n.b.b.K.K.b.K.b.b.K.K.b.K.'.rXgXgXdXgXdXeX`.J.K.J.P.4XdX9X8.&.e.b.b.K.b.c.g.h.G o h cXxX{ X 4     ",
"  X g uXdX2XJ.K.b.K.s.;.2.4.d.u.b.K.b.b.x.b.b.b.K.K.).2X0XfXgXgXgXrX5X3XE.K.x.b.K.4XfX0X8.=.<.b.b.K.b.b.g.h.G o h lXcX{.X 4     ",
"w @ g iXdX2XK.K.b.b.r.*.2.4.y.z.b.b.b.c.x.x.K.K.K.E.0XfXgXgXgXgXdX5XI.I.K.b.x.x.J.5XdX0X8.*.3.b.b.b.b.c.d.h.G - f uXjX{ o 4     ",
"q @ g iXfX`.K.K.b.b.s.*.*.4.g.z.c.b.b.b.b.K.K.I.).1XrXgXdXgXdX0X0X'.K.b.K.b.b.x.K.5XgX0X8.-.3.x.x.H.K.c.g.h.F o y uXkX( o 4     ",
"e o g iXdX2XK.b.b.K.s.;.*.t.d.g.b.b.b.b.K.K.I.`.5XdXfXdXdXdXrX_.P.I.x.b.K.H.b.b.P.5XrX0X8.-.t.v.b.b.K.n.g.h.G o f pXhX( o 4     ",
"e X g sXfX'.b.K.K.b.r.*.2.d.g.g.b.b.v.K.K.K.P.5XqXgXgXfXdXrX5X).K.b.b.b.b.H.b.b.J.5XdX0X9.-.4.b.b.H.K.b.g.h.G o f uXgX/ X 4     ",
"e X g uXfX2XK.K.b.b.s.*.*.4.g.z.b.b.b.b.I.3X0XrXgXgXdXdX0X`.).I.K.K.b.K.H.K.b.x.J.5XdX0X9.-.q.b.v.K.b.n.g.h.G X f ,XgX/ O 4     ",
"6 X g uXfX2XH.K.b.K.r.*.*.4.l.g.b.H.K.J._.rXgXgXdXdXdXrX3XI.K.K.b.b.b.b.K.K.b.x.K.6XgXqX8.=.0.b.x.H.b.z.y.h.G o f lXgX/ X 4     ",
"e X g uXfX2Xb.K.K.b.s.*.2.4.d.g.k.c.E.`.0XdXgXgXfXtX5X`.).b.b.b.b.H.c.b.L.K.x.x.b.5XgXqX8.*.0.c.x.b.K.z.y.h.G o f ,XdX/ X 4     ",
"e X g iXfX2Xb.K.b.K.s.;.;.d.d.d.g.j.2XrXdXgXgXgXdX0XQ.I.H.c.x.x.b.b.b.K.K.K.b.b.H.5XdX0X8.&.3.b.b.K.L.b.d.h.G o f pXfX/ o 4     ",
"e X g iXfX2XK.K.b.K.g.3.5.3.t.t.g.f.2XaXgXgXrXeX9X3XI.H.b.z.z.c.b.H.b.b.K.K.K.).`.=X*X=Xa.1.f.b.K.).`.I.g.h.G o f pXsX/ X 4     ",
"w o g iXfX2Xb.K.b.K.b.H.c.5.&.2.d.j.1XdXgXgXdX5XE.K.K.b.c.y.g.c.K.b.K.K.x.b.).eXqXY.6.>.j.b.b.b.I.5XrX2Xg.h.G X f uXfX/ X 4     ",
"  + m :X8X<XP.^.K.b.K.K.b.7.6.q.d.l.).5XqXrXeX`.b.b.b.b.c.k.l.b.K.K.K.b.b.^.1X0XtXG.,.,.c.x.K.L.(.3XqX6XB.M.G 8 m $XpX( 3 z     ",
"      c f @.eX5X^.H.H.K.K.2X9X=X,.2.d.F.H.^.I.K.K.b.b.b.b.K.K.b.b.b.K.K.'.rX4XB.9.p.z.g.b.K.`.0X0XI.L.N.p p O.%X@Xg y C         ",
"      $ ; O.hXeXI.b.K.I./.eXfX=X=.*.4.d.j.H.K.b.b.b.x.b.b.x.b.b.b.b.b.K.3XfX4X,.*.h.K.b.J.J.'.dXqXU.d.#.: :  XkX:X1 O c         ",
"      5 X O.hXrX^.H.).3X3XrXdX=X,.*.4.l.g.c.b.b.b.b.b.b.b.K.b.K.K.b.b.H.wXhX9X,.*.s.K.I.3X'.'.`.`.k.l.] O O |.kX$X1 O c         ",
"      3 X O.jXdX(.I.3XrXdXhXgX*X>.*.4.l.g.c.b.b.b.b.K.K.K.K.K.K.H.H.b.I.0XhX9X6.&.r.L.1XqXgX4XJ.x.i.U.o.; : oXkX%X1 O z         ",
"      v c ) |.XX1X2X0XgXgXgXgX4X8.3.3.r.y.g.c.c.K.K.b.b.b.b.b.b.b.K.).`.*X*XL.0.5.U.2X_.5X0X2XR.v.| R R l G O..X{.m c           ",
"          u O p %XrXfXjXjXgXdX5XE.b.3.&.:.d.d.H.K.b.b.c.b.b.b.v.^.^.eXrXA.&.2.k.H.4XrX7XI.J.K.b.~.a ; l ~.~.G ; 5               ",
"          7 @ i :XrXdXjXaXqX7X2XL.b.r.:.2.d.h.U.).E.E.E.E.R.E.).)._.5X9XG.2.q.R.).3X0X0XE.K.x.z.Y.s X l U.J.G ; *               ",
"            @ i :XgXfXgXaX2XR.E.K.b.c.c.g.;.>.L.eX0XrXrXqXrXqXrXrX1X8.8.S.F.E.eXeX2XE.I.K.H.c.u.C.a X l U.P.J O &               ",
"            % i :XjXgXsXdX).v.K.b.b.K.H.g.;.>.T.qXaXrXdXdXaXdXqXrX1X>.;.S.K.(.eXrX2XK.b.K.H.U.p.A.a - s ~.;XJ > e               ",
"                V m {.gXdXE.b.b.b.K.K.K.b.k.s.j.A.C.Z.B.Z.B.Z.Z.C.S.f.j.`.7X3X`.`.I.b.x.y.F.#.d D P R Y d k ~                   ",
"                6 X ^ kXhX1XK.b.b.K.K.K.b.c.c.r.&.&.*.*.*.=.*.*.*.2.b.K.0XrX0XQ.H.b.x.n.g.F.T - - ` 8.T - $                     ",
"                  t ~ {.+.~.3XI.b.b.b.b.b.b.c.g.e.r.0.3.r.0.e.s.e.j._.3X6X5X`.K.b.c.c.S.E R K H H K ' K c b                     ",
"                      O : $XfX5XI.H.b.b.b.b.K.b.b.b.b.b.b.b.K.K.I._.qXdX'.J.K.b.b.v.F.B.2 X H =.$.0 + q                         ",
"                      z i OX$X;X_.).K.b.x.b.K.K.b.K.K.b.b.H.K.).`.2XqX0X).b.b.n.b.%.m.E p , H ] T M x S                         ",
"                          z < Q sXeX).K.b.K.K.b.b.b.b.b.b.K.I.3XeX0XQ.K.v.K.b.g.j.Y , 2 ' T H < 8                               ",
"                          5 @ C yXiX=XH.b.x.K.b.b.b.b.b.K.P./.3XeX3XK.b.v.K.U.C.A.K : , Y T J > *                               ",
"                              } m j m.g.g.b.L.K.b.x.c.L.`.5X5X`.).I.K.H.n.n.%.H 0 F P K 0 2 N                                   ",
"                                3 : _ F.k.x.K.H.x.x.b.I.4XrXrX=XJ.K.K.b.y.j.m., = D E ! , > Z                                   ",
"                                  m Q K W j.c.F.z.z.z.k.H.Q.E.H.c.z.i.n.] K K F J d D j B                                       ",
"                                    q @ 9 a.y.l.g.g.g.g.y.y.y.g.g.t.y.D.F = , R E d . 8                                         ",
"                                      z M  .U U U ....X.X.........U ] _ f o 1 H K M w v                                         ",
"                                          : : : : : : : : : : : : : : : O O O ; :                                               ",
"                                          & & # + + + + # > > + # + & $ $ > + + $                                               ",
"                                                                                                                                "
};
