/* XPM */
static char *cf20007f8748417ac6cbc4bd71df3e77FLpHEd3jHewsTqHt[] = {
/* columns rows colors chars-per-pixel */
"64 64 253 2 ",
"   c None",
".  c #150800",
"X  c #191507",
"o  c #10140B",
"O  c #241705",
"+  c #28150C",
"@  c #292519",
"#  c #372A1B",
"$  c #392807",
"%  c #2A2C25",
"&  c #3B3626",
"*  c #383A31",
"=  c #3D2F24",
"-  c #56150B",
";  c #74130B",
":  c #472A1A",
">  c #433929",
",  c #553B27",
"<  c #433E33",
"1  c #6F3626",
"2  c #3C4838",
"3  c #494639",
"4  c #564A39",
"5  c #5E4C2D",
"6  c #6D4E35",
"7  c #7B713A",
"8  c #3F4741",
"9  c #494A44",
"0  c #5C5849",
"q  c #55554E",
"w  c #675A49",
"e  c #765346",
"r  c #756546",
"t  c #666458",
"y  c #796D57",
"u  c #6E6C53",
"i  c #797468",
"p  c #757973",
"a  c #5F694C",
"s  c #8E110C",
"d  c #962814",
"f  c #A72918",
"g  c #B83918",
"h  c #B22E11",
"j  c #93312A",
"k  c #B12E22",
"l  c #C43D1F",
"z  c #8E4735",
"x  c #B24728",
"c  c #A95030",
"v  c #C44625",
"b  c #AA5A44",
"n  c #937C45",
"m  c #8A7659",
"M  c #8B784E",
"N  c #AD7455",
"B  c #897B65",
"V  c #927B63",
"C  c #837F75",
"Z  c #AA776D",
"A  c #945F44",
"S  c #E57C77",
"D  c #7E8076",
"F  c #8F853E",
"G  c #938449",
"H  c #968957",
"J  c #93894E",
"K  c #A98D59",
"L  c #86846B",
"P  c #98876A",
"I  c #9B966C",
"U  c #8A8877",
"Y  c #9A8B75",
"T  c #949472",
"R  c #9B9479",
"E  c #A48B6C",
"W  c #A69568",
"Q  c #B69A67",
"!  c #A58E73",
"~  c #AC9273",
"^  c #A59479",
"/  c #AD9B7B",
"(  c #A79879",
")  c #B69B7A",
"_  c #B58C74",
"`  c #B6AA7A",
"'  c #B6AA6D",
"]  c #B3AA5D",
"[  c #C78972",
"{  c #C7B769",
"}  c #C7A975",
"|  c #CAB674",
" . c #CDAF72",
".. c #CFC979",
"X. c #9B9888",
"o. c #95928A",
"O. c #A29A82",
"+. c #A89B85",
"@. c #B59E85",
"#. c #9CA393",
"$. c #ABA28A",
"%. c #AAA887",
"&. c #BCA384",
"*. c #B8A688",
"=. c #B7B289",
"-. c #ACA694",
";. c #B7AC96",
":. c #BBB49D",
">. c #B5B599",
",. c #A8AAA6",
"<. c #AAB2A8",
"1. c #BCB4A3",
"2. c #B7B7A7",
"3. c #B8BCB5",
"4. c #99A4A4",
"5. c #C89989",
"6. c #C2A486",
"7. c #C4AB8C",
"8. c #C6A989",
"9. c #C6B48B",
"0. c #C5AE94",
"q. c #C8B699",
"w. c #D4B79B",
"e. c #E7AB99",
"r. c #C4BBA7",
"t. c #D6BBA4",
"y. c #C6BCB0",
"u. c #E3BAA7",
"i. c #FB9796",
"p. c #BDC3BC",
"a. c #D7C986",
"s. c #CCC89D",
"d. c #DCCC94",
"f. c #D4CB9D",
"g. c #D7C999",
"h. c #DED49B",
"j. c #D8D085",
"k. c #E5D78A",
"l. c #E7CA9B",
"z. c #EADB9C",
"x. c #E5D596",
"c. c #F3DC9C",
"v. c #F7E39C",
"b. c #EBE39A",
"n. c #C6C3A9",
"m. c #DACDA4",
"M. c #D2C5AD",
"N. c #D8C7A8",
"B. c #DCD2A4",
"V. c #DCD5AC",
"C. c #DBD9AB",
"Z. c #C8C5B4",
"A. c #DBC4B3",
"S. c #DBCDB4",
"D. c #D5CAB8",
"F. c #D8D4B8",
"G. c #CCD1BC",
"H. c #E3C4A8",
"J. c #EBDCA4",
"K. c #E2D5AB",
"L. c #E4DBAA",
"P. c #E8D9A6",
"I. c #F3DBA6",
"U. c #E9CCB3",
"Y. c #E8D6B8",
"T. c #F7D9B9",
"R. c #F5C7AC",
"E. c #ECE2AD",
"W. c #EFE1A2",
"Q. c #FDE4A5",
"!. c #FEECA6",
"~. c #F3E3AD",
"^. c #FCE5AB",
"/. c #FCEBAC",
"(. c #F6E4A6",
"). c #FDF2AE",
"_. c #ECE2B4",
"`. c #EDE6BC",
"'. c #E6E4B8",
"]. c #FBE6B2",
"[. c #F5EAB4",
"{. c #FCEBB4",
"}. c #FDEDBB",
"|. c #F5E6B8",
" X c #FFF2B2",
".X c #FEF3BC",
"XX c #F7F0BB",
"oX c #CCBFC1",
"OX c #BBD0C3",
"+X c #DBD5C4",
"@X c #DCDAC4",
"#X c #DDDCCB",
"$X c #D6D6C8",
"%X c #D3CDC5",
"&X c #ECDBC5",
"*X c #E3DCCC",
"=X c #E7DAC7",
"-X c #F4DCC3",
";X c #FBDEC4",
":X c #F5DDCC",
">X c #FFD9C9",
",X c #E5DED1",
"<X c #FFDCD3",
"1X c #F1CEC4",
"2X c #E5E3CD",
"3X c #EBE3CD",
"4X c #EAE3C7",
"5X c #FCE2C5",
"6X c #F5E3CB",
"7X c #FDE4CB",
"8X c #FEEACD",
"9X c #F6EBC7",
"0X c #FCF3C2",
"qX c #FFFCC5",
"wX c #FCF5CB",
"eX c #FEFCCB",
"rX c #F5F5CA",
"tX c #EAE5D2",
"yX c #EDEBD4",
"uX c #ECECDB",
"iX c #E5E4D2",
"pX c #FDE4D3",
"aX c #F3ECD5",
"sX c #FEEBD4",
"dX c #F3EEDB",
"fX c #FCEDDB",
"gX c #FBE5DA",
"hX c #F5F3D5",
"jX c #FEF3D4",
"kX c #FEFDD4",
"lX c #F5F3DC",
"zX c #FCF4DD",
"xX c #FEFDDC",
"cX c #F7FBD7",
"vX c #EEF2D8",
"bX c #EBECE2",
"nX c #F8ECE4",
"mX c #EFF3E8",
"MX c #F4F3E3",
"NX c #FCF5E2",
"BX c #FEFCE4",
"VX c #FEF6EB",
"CX c #FFFFEC",
"ZX c #FFFFEE",
"AX c #FFFCEE",
"SX c #FEFEEB",
"DX c #F5FBE9",
"FX c #F6FEF3",
"GX c #FFFFF1",
"HX c #FEFEF2",
"JX c #FEFEFA",
"KX c #FBF3F2",
"LX c #EFF2F2",
/* pixels */
"                                                                                                            @ q % p JX          ",
"                                                                                                            D LX%Xo 9           ",
"                                                                                                            $XJXJXbX*           ",
"                                                                                                              DXbXHXmXt         ",
"                                                                                                              xXxXhXxXxXT .     ",
"                  X.r.;.                                                                                      kXrXkXeX`.4XI X   ",
"            VXCX2XCXlXCX+X                                                                                  F.xXrXeX0X'.0XjXO   ",
"          AXNXCXNXCXCXCXGXNXVXAX                                                                            BXcXwXs.0X0XK.0XP   ",
"  %     *XAXCXSXCXAXVXdXVXCXVXNX2X                          #XlXDXNXSXuX                                    BXxX9Xf.}.{.|.|.L.X ",
"C 3   GXGXtXlXNXVXAXCXGXCXSXCXCXG.O.u U :.:.G.:.    &   @XSXSXSXBXNXBXBXCXdX                                BXBX9X_.}.~.].].5X7 ",
"i t MXGXCXaXSXBXAXVXNXVXVXVXNX+X1.-.3XSXSXSXvXSXGXiXG.yXCXCXNXMXMXCXZXDXSXCXCX                            BXxXkXeX}.}.{.x.J.|.=.",
"o.3 D.CXSXVXBXBXlXdXGXAXNXCX@X-.1.CXDXSXCXSXSXSXCXCXCXSXBXSXCXCXCXlXCXSXSXCXMXCX                        BXzXxXxXkX0XT.{.I.x.].h.",
"o.0 %XVXSXdXBXzXlXBXlXNXSXyX-.r.VXVXCXGXdXGXJXKXVXCXSXCXVXDXSXCXSXCXCXGXCXCXSXCX+X1.F.yXtX              xXxXwXkXwX0X{.Q.x.z.I.L.",
"i q VXNXzXdXzXxXSXSXBXSXlXZ.;.*XAXVXJXMXJXJX,.%XCXGXCXMXGXDXGXMXCXCXCXGXCXAXCXCXSXzXBXBXBXBXSXlXG.-.>.hXkXkXrX.XT.}.].^.Q.a.J.{.",
"U # dXVXNXdXsXBXBXzXBXSXdX-.3.BXGXAXKXHX#X2.-.#.%XGXuXGXGXVXAXFXHXAXHXGXAXSXCXSXSXBXBXBXcXBXBXBXSX2Xn.>.'.kXqXE.P.{.{./.z.a.[.[.",
"  9 > ;.D.BX6XjXBXhX=XF.Z.$.*XCXCXVXHXJXo.2.GX+X#.G.GXVXSXVXGXVXAXHXAXAXAXVXSXSXNXBXBXBXSXBXBXDXSXlXF.%.N.qXqXg.I.{.^.Q.x.W.~.` ",
"    9 , =XNXBX&X1.>.-.-.>.:.aXMXBXBXZXvXX.CXCXCXG.U 2XBXDXCXMXGXCXCXCXSXSXSXBXSXCXCXSXBXSXSXSXCXBXSXBXF.=.B.~.d.{.[.W./.z.W.' P ",
"      @ $.nX&X:.$.y.=X,XdXBXSXcXBXBXhX2X%.BXyXxXxX2XD F.SXMXGXCXCXSXSXSXBXBXBXSXVXFXZXCXCXBXDXGXDXBXSX9X/ w.~.J.E. X~./.z.` M C.",
"      B > :.^ -.tXNXCXSXzXSXzXhXhXxXcX'.%.rXxXxXBXBX2XL G.BXNXSXCXSXBXBXBXBXBXSXVXGXJXGXGXZXZXDXJXCXBXjX=.9.g.d.E..X.Xz.d.' ' cX",
"        i + Y fXBXVXJXGXNXCXhXBXBXhXBXs.%.xX0XkXcXcXxXs.L S.SXCXZXZXDXBXBXxXBXSXGXHXVXVXSXFXGXCXVXCXCXNXq.` &.g.}.[..Xd.d.l.rXM.",
"          + u.JXCXZXFXFXJXGXDXBXBXJXnX%XZ.jXqXqXkXeX'.E.g.^ CXDXFXFXZXBXBXSXCXGXAXSXSXBXSXSXCXCXBXCXCXDXdX=Xn.%.` h.h.h.l.R.9Xa ",
"        0 o.nXKXBXSXFXHXGXDXcXxXlXnXKXoX*XxXeXqXrXqX[.[.K./ BXJXFXFXZXSXBXVXGXGXVXBXBXBXBXSXSXBXCXCXCXSXSXSXMXiXn.I I E.l.T.>.o ",
"        = D.fXfXBXBXBXBXzXV.=.` s.M.=X+XVXBXkX_.'.[.{.{.T.) 2XJXHXFXSXBXSXSXGXGXSXBXBXBXBXBXSXBXSXCXCXDXSXCXCXSXlX:.I I T.5X& 2 ",
"      O.4 Y.BXzXkXL.*.I P G F G ' ` -.BXCXBXkXf.C.~.{.].}.) M.AXHXFXCXBXBXBXHXGXVXSXBXNXBXSXSXBXSXCXCXSXDXSXVXSXGXSX>.r t.( o OX",
"      C 4 9XkXT.W K n K Q ] ] ..' J =.xXxXBXrXs._././.^.0X8.q.AXHXFXSXBXBXSXCXGXSXSXBXNXBXSXSXSXBXSXCXSXCXCXCXCXFXGX@XO.m $ o.  ",
"      +.5 9X} M K } } }  .{ { { ] 7 E.kXxXxXC.V.XX).Q.I.}.g.*.MXFXGXSXBXBXSXGXGXSXBXBXBXBXSXSXSXDXSXSXSXCXCXCXGXKXJXSX:.e . #.  ",
"    NXP $ J G Q }  . . .|  .{ | G J qXeXkXkXs.E.{./.v.^.{.P.( lXCXZXSXBXBXSXZXFXSXSXBXMXNXSXSXSXSXBXBXDXDXBXVXCXJXJXSX$.e : *   ",
"    B X 6 W | }  . .Q n n G G G 7 d.qXqXXXXXd.[././.v./.)._.O.vXCXZXBXBXBXBXZXFXSXBXBXMXNXBXSXBXCXSXSXSXCXCXSXCXGXnXBXM.e 1 o   ",
"  Z.. ( _.L.d.z.x.a.` Q W =.` I C.kX0XqXqXx.z.).W./.).c./.~.T $XvXiX4XBXBXBXFXFXZXSXSXBXDXDXNXDXBXSXSXSXSXSXSXSXCXzXBXw.1 1 o p.",
"  9 0 hX`.P.d.h.J.~.0XwXkXBXSXVXzXkX0XqX Xj.z.!./.!.v.!.).L.T >.2.2.>.M.xXBXDXDXZXCXSXSXBXSXBXBXBXBXSXBXSXBXBXBXNXzXjX) 1 6 + <.",
"  + U 9XK.L.~..X0XkXkXxXBXCXJXJXGXzXeXqXW.j.!.!.).(.b.).(.E.T %.p.p.:.0.S.lXFXZXZXSXSXSXSXSXZXSXBXBXBXNXBXBXBXNXzXzX8XQ 1 z + <.",
"  * #.4XzXeXkXkXxXxXcXcXDXDXJXJXAXNXeX.Xk.k.!.v././././.W.L.T p.uX'.sXq.^ F.DXDXSXSXBXDXSXSXSXSXBXBXNXNXBXzXNXNXzXBXwX9.A 6 X 2.",
"  2 U SXBXxXxXeXxXcXxXBXSXGXJXJXGXBX.Xb.k.b.!.Q.^././.Q.~._.T yXSXaXfX7Xt.0.y.GXCXCXCXVXBXSXSXSXSXBXBXDXzXzXNXNXdXzXxXwX} , X   ",
"  2 t SXyXxXzXBXxXxXxXxXBXDXVXGXSXrXh.j.v.!.^.}.].^./.c..XL.( BXAXAXNX7XpXt.-.iXDXGXGXGXSXCXSXSXSXBXBXBXBXNXlXNXMXMXBXBXu.: *   ",
"  p 0 MXMXSXzXBXBXBXxXxXxXBXSXSX'.C.j...k.v.T.].].^.I.I.{.9.$.VXnXKXt.Z @.t.A.1.*XuXGXCXSXSXSXSXSXSXSXBXBXBXNXBXJXFXDXBX:X, p   ",
"  o.2 uXuXBXBXxXVXxXkXeXxXxXhXF.C._.).b.b.).0X}.}.].J.].|.I r.CXHXZ - - ; z 0.A.Z.#XMXDXVXSXSXBXSXBXSXSXSXBXSXSXZXHXDXSXVXw     ",
"    * ,.uXuXtXBXBXkXzXxXkX`.B.B..X.X X.X.X.X0X0XI.~.{.9XT ;.CXAXKX5.j ; s ; b u.D.y.#XCXCXSXCXSXSXBXBXSXSXCXAXVXCXBXlXSXHX9     ",
"        bX#XtXvXxXBXxXrXV.B._.qXqX.X].}..X}.[.I.L.Y.rX/ L VXNXHXKXnXi.s k f s Z D.p.#XJXCXSXCXBXSXSXSXSXCXCXCXAXBXxXSXSX,X0     ",
"          SX@X@X4XzXxXwX`.0X.X[. X.X.X{.XX0X|.h.L.9Xn.a @XJXHXVX<X>XS s f f f b A.Z.,XSXCXBXSXSXBXSXSXSXCXCXCXCXzXBXzXVX%X<     ",
"          $XyXF.'.'._.L.XXqX0XW.h.~..X.X[.E.P.K.8XS.y 1.FXFXVXVX5.; d f f g h k w.Z.iXVXCXSXSXSXSXSXSXSXCXCXGXCXBXSXzXCXC       ",
"            lXtXV.m.n.f.h.L.~.E.d.f.K.[.E.f.f.`.#XD R mXFXFXJXVXZ ; d k g g h g 9.Z.2XSXSXSXSXSXBXSXSXSXCXCXGXCXSXzXCXD.%       ",
"            X.hXS.B.B.C.h.f.f.P.B.h.h.g.B._.`.'.T U #X,XJXmXJXVXi.j f f h g l v ` n.uXBXSXSXBXSXSXSXSXZXZXCXCXCXCXCX@X<         ",
"              n.V.B.m.B.B.g.h.B.h.L.V.f.C.`.V.=.u $X=XnXJXJXVXCX>Xj d v v g v x 6.G.vXBXBXBXBXBXSXSXSXSXZXZXCXCXVX3Xt           ",
"              a / *.m.P.Y.K.m.m.V.f.m.4X4Xq.T y X.%X=XKXKXKXGXBXVXN j k v g x A 7.@XzXBXBXNXNXBXBXSXSXSXSXZXCXCXSXo.O           ",
"              +.^ P m P 7.N.m.Y.Y.Y.&XM.T y ^ F.%.>.2XNXgXVXVXSXBXR.c j v c c N q.4XBXBXhXlXBXNXNXBXCXlXBXBXSXBXMX0             ",
"              -.0.@.@.e 5 P / $.q.r.^ y P M.:XF.M.M.4X&X+X:X&X3XzXzXe.b z c N ) S.tXBXBXNXNXNXNXNXBXlXSXSXyXzXCX3.<             ",
"              r.@.@.t.! m @.*.^ ^ P Y q.A.A.y.t.7X5XjX4X1X:X:X:X4XsXjXR.5.[ _ w.9XlXBXBXBXNXNXNXlXSXBXzXlXzXBX2XU               ",
"              r.*.6.&.@.V m t.pXD.t.A.U.y.r.U.gX7X5X9XaXaXgXpX:XjX6XjXjXT.H.H.jXBXBXBXBXBXNXBXBXNXfXBXjXxXBX&XO.w               ",
"              $.@.5.) w._ r E t.Y.Y.U.U.U.1X7X;X7X;X-X8XfXpX:X:XsXjXjXsX7X-XBXBXBXBXNXNXNXNXNXVXBXNXzXBX&X=./ +.                ",
"              r.;.6.6.@.@.~ V V Y.-XpXfXjXfXsXsX8X8X;XpXNXfXgXaX=XjXpXxXBXBXSXaXBXNXNXNXfXfXNXBXNXVXxXzX@.( t.B                 ",
"              ,XE _ 8.6.&.&.! m m 7.T.-XU.U.H.0.S.pX>X<XgXpXlXyXhX4X&X7XBXxXBXDXNXBXNXNXNXnXfXfXzXpXsXY./ N.7.                  ",
"              VXq.@.H @.&.&.6.r $ 6 P ) &.6.@._ 0.7X<X>X<X<XlXiXaX6XsX7X6XsXyXSXBXNXNXfXzXzXfXpXsX7XfX0.^ P $                   ",
"                NX3XM.$.R $.$.I q.=.m ~ w.t.u.0.&.Y.sX;X>XfXfX3XsX6X:X;XpX-X7X;X7XsXsXpX7X7X7X-X-XjX6XB O.                      ",
"                JXMXvXuX2X2XaXlX&XaX4X5 5 V 0._ P w.5XsX7X1X&X7X6X&X;XfX7XsX7XsX7X;X;X;X;XT.5XjXBXY.+.+.                        ",
"                  GXJXMXGXGXbXBXDXfX+.. O . w ! m _ w.5XjXsX7X7X7XsXpX7X;X7XN.U.sX8X5X7XsX8X7X-X:X@.1.                          ",
"                      JXmXbXGXJX2.      w @ y Y E ~ ) 0.N.T.sX8X7XzX7XY.:X&.! w.t.-XjX8XT.7X6X-X$.Y                             ",
"                                            o.y.L ~ 7.*.8.8.u.T.U.K.N.N.) : , P $.*.q.q.w.q.P 4 #                               ",
"                                            ,.mXP m P &.8.6.Q ) 6._ ~ E # O & = 3 6 y y 4 & #                                   ",
"                                              LXM.+.m m E ) ~ W E E ^ 4 O u i 4 3 & =                                           ",
"                                              LXGXlXD.*.Y I / / ) =.M.4 * D                                                     ",
"                                                HXDXSXBXBXjX6XS.S.fX#XX t                                                       ",
"                                                4.JXJXuXMXVXlXCXNX#X% % <.                                                      ",
"                                                  8 3.HXHXJXVX3.t o 8 4.4.                                                      ",
"                                                  q % 8 q t q % % p p.,.                                                        "
};
