/* XPM */
static char *d3e67133c54249a7a72fc091fc75b312AhYhSGPawaz2vyYs[] = {
/* columns rows colors chars-per-pixel */
"64 64 145 2 ",
"   c None",
".  c #532D17",
"X  c #542F1A",
"o  c #55311B",
"O  c #58341F",
"+  c #5A3622",
"@  c #5C3925",
"#  c #5D3D29",
"$  c #5D412F",
"%  c #5F4230",
"&  c #624633",
"*  c #634836",
"=  c #664B39",
"-  c #694E3C",
";  c #6A503E",
":  c #5E4F42",
">  c #5E5043",
",  c #5F594E",
"<  c #615446",
"1  c #6B5545",
"2  c #625548",
"3  c #615A4E",
"4  c #6C594A",
"5  c #725D4D",
"6  c #635D52",
"7  c #6A5E51",
"8  c #666155",
"9  c #6E6255",
"0  c #6A655B",
"q  c #6D685E",
"w  c #726557",
"e  c #716559",
"r  c #766B5E",
"t  c #6D6A60",
"y  c #726D62",
"u  c #796E62",
"i  c #737065",
"p  c #7D7365",
"a  c #767369",
"s  c #7A766E",
"d  c #7C796F",
"f  c #7C7770",
"g  c #7E7A72",
"h  c #827669",
"j  c #82796C",
"k  c #817E75",
"l  c #897E75",
"z  c #837F78",
"x  c #848177",
"c  c #8A8076",
"v  c #878579",
"b  c #8D8379",
"n  c #88867A",
"m  c #88867B",
"M  c #88877B",
"N  c #89877C",
"B  c #88877E",
"V  c #88867C",
"C  c #89887C",
"Z  c #8A887C",
"A  c #8A887D",
"S  c #8A897D",
"D  c #8B897D",
"F  c #8B897E",
"G  c #8B887F",
"H  c #8B8A7F",
"J  c #8C8A7E",
"K  c #8C8A7F",
"L  c #8C8A7E",
"P  c #90887E",
"I  c #8A8780",
"U  c #8B8880",
"Y  c #8C8980",
"T  c #8D8B80",
"R  c #8C8A81",
"E  c #8D8B81",
"W  c #8D8B82",
"Q  c #8D8C81",
"!  c #8E8C80",
"~  c #8E8C81",
"^  c #8E8C82",
"/  c #8E8D82",
"(  c #8F8D82",
")  c #8F8D83",
"_  c #8F8E83",
"`  c #8F8C84",
"'  c #8F8D85",
"]  c #8D8B81",
"[  c #928A82",
"{  c #908E83",
"}  c #948C83",
"|  c #908D84",
" . c #908D85",
".. c #908E84",
"X. c #918F84",
"o. c #908E85",
"O. c #918F85",
"+. c #908E86",
"@. c #918F87",
"#. c #928F86",
"$. c #928F87",
"%. c #918F86",
"&. c #928F88",
"*. c #918F88",
"=. c #929086",
"-. c #939187",
";. c #939187",
":. c #929088",
">. c #939188",
",. c #939189",
"<. c #949289",
"1. c #949389",
"2. c #959389",
"3. c #94918A",
"4. c #95918A",
"5. c #94938A",
"6. c #95938A",
"7. c #95938B",
"8. c #95948A",
"9. c #95948B",
"0. c #96948B",
"q. c #97958B",
"w. c #95938C",
"e. c #96938C",
"r. c #97958C",
"t. c #97948D",
"y. c #97958D",
"u. c #95928B",
"i. c #98968D",
"p. c #98958E",
"a. c #98968E",
"s. c #99978F",
"d. c #99968E",
"f. c #999690",
"g. c #999891",
"h. c #9A9890",
"j. c #9B9991",
"k. c #9C9A93",
"l. c #9D9B93",
"z. c #9D9B94",
"x. c #9E9C95",
"c. c #9F9D97",
"v. c #9F9E97",
"b. c #9C9A93",
"n. c #A09F99",
/* pixels */
"            + o + + + + @ @ # @ @ $ @ @ $ @ @ $ @ @ @ $ @ # # # # # # # @ @ @ $ @ @ $ @ @ $ @ @ @ @ @ @ O O O O o o             ",
"            - 1 - - - - - - - - - - = - - - - - - - - - - - - - - - ; - ; - - ; - - - ; ; - - = - - - - = = = = = ;             ",
"        o - h b j h h h j p p p p p p p p p p p p h h p p p p p p p p p p p h p c h x x c c h c h c x p j j h x b h - o         ",
"        & 5 } c.q.[ / / / T V m M v v v v v v v v v v v n n n n n n n n n n n n J J J J J J J J J J J J J J J q.n.P 4 @         ",
"    o & 4 k s.c.2./ / / S m m m n n n n n n n n v v n n n n n n n n n n n n v n S J J -.J q.K J J J J 1.J J J 8.c.2.y > $ o     ",
"    $ 1 u V g.l.-.J / J M m v v v v v v v v v v v v v v v n v v v v v v n v v n S S J J J J J J J J J 2.1.J J 1.c.e.d 7 = $     ",
"O & 7 p d V e.j.-.K J J v v x v v v v v v n v n v v v v v v n v v v v v v v v v v v M M J J J J J 8.J J J J J 8.j.,.s 0 7 < $ O ",
"O * r k g v e.s.{ K J Z v v v v v v n v v v v v v v v v v v v v n v v v v v v v v v v v M S J J J J J J J J J 8.j.*.s q t 7 % O ",
"+ * y g g v 2.q./ M v v v v v v v v v n v v v v v v v v v v v n v v v v v v v v v v v v v v D J J K D v v M M / s.*.s 0 t 3 & O ",
"+ * r g g z 2.s.K x v v v v v v n v v v v v v n v n v v v v v v v v n v v n v v v v v v v v Z J J D v v v v x K y.%.s q q 3 $ O ",
"+ * r d a k %.t.K v v x v v v v v v v v v v v v v v n v n v v v v v v v v v v v v v v v v v v v Z M v v v v v S y.' s 0 8 < $ + ",
"+ * r s i d %.q.K v v v v v v v v v v v v n v v v n v v v v v v n v v v v v v n v v v v v v v v v v x v v v v K y.%.a 0 8 < $ O ",
"+ * w i i d { 2.Z v v v v v v v c v v v v v v v v v n v v v v n v v v n v v v v v v v v v v v v x v v v v v v S q.' a 0 8 < $ + ",
"@ * w i i d { 2.Z v v v v v v v n v v v v v n v v v v v n v v v v v v v v v v v v v v v v v v v v v v v m x v Z q.%.a 8 8 < $ + ",
"@ & 9 i y d { 2.D v v v n v v v v v v v v n v v v v v v v v v v v n v v v v n v v v v v v v v v v v v v v v m S 2.T i 8 7 < $ + ",
"+ & 9 i i d { 2.Z v v v v v v v v v n v v v n v v v v n v v n v v v v v v v v v v v v v v v v v v v v v v m x R y.R q 6 6 < $ + ",
"@ * 9 y y d %.2.Z v v v v v v v v v n v v v v n n v v v n v v v v v v v n v v v v v v v n v v v v v v v v v v K 2.K t 6 6 < $ + ",
"@ * w i i g %.2.Z v x v v v v v v n v v v v v v v v v v v v n v v v n v v v v v v v n v v v v n v v v v v v x D 2.S r 6 6 < % + ",
"@ * 9 i y d { 2.D v v v v v v n v v n v v v v v v v v v v n v v v n v v v v v n v n v v v v v v v v v v v v v D 2.I y 6 6 2 % + ",
"@ * 9 y y d { 2.D v v v v v v v v v v v v v n v v n v v v v v v v v v n v v v v v v v n v v v v v v v n v v x D 2.T q 6 6 > % + ",
"@ * 9 i i g %.2.D v v v n v v v v v v n v v v v v v v v v v v n v n v v v v v v v v n v v v v v n v v v v v v Z 5.S q 6 8 2 % + ",
"@ * 9 i y g { 2.D v x v v v v v n v v v v n v v v n v n n v v v v v v v v v n v v v v v v v n v v v n v v v v D 5.H y 6 6 > % + ",
"@ * 9 i y d { 2.D v v v v v v n v v v v n v n v v v n v v v v v v v v v v n v v v v v v v n v n v v v v v v v D 5.R r 6 8 < % + ",
"@ * 9 i y d %.2.D v v n v v v v v v v v v v v v v v v v v v v v v v v n v v v n v v v n v v v v v n v v v v v D ,.R q 6 3 , % + ",
"@ * w y i g { 2.K M x M v v v v v v v v v n v v v v v v v v v v n v v v v n v v v v v v v v v v v v v v v v m S q.R t 6 6 2 % + ",
"@ * 9 i y d %.2.D x v v v v n v n v v v v v v v n v n v v v v n v v n v v v v v v v v n v v v v v v v v v x v S e.V r 6 6 > $ @ ",
"@ * 9 i y g %.2.D v v v v v v v n v n v v v v v n v v v n v v v v v v v v v v v v n v n n v v v v v v v v v v S ,.I t 6 8 2 $ + ",
"@ * 9 i y d { 2.D v x v v v v v v v v v v n v v v v v v v v v v v n v v v n b v v v v v v v v n v M v v v v v S q.R t 6 8 > $ @ ",
"@ * 9 i i d { 2.K x x v v v v v v v v v v n n v v v v v v v n v v n v v v v v v n v v v v v v v v v v v v v v S 2.H t 6 6 > $ @ ",
"@ * 9 i y d { 2.D v v v v v v v v v v v v v v v v v n v v v v v v v v v n v v v v v v v v v v v v v v v v v x Z 2.J y 6 8 > $ @ ",
"@ * w i i d { 2.K v v v v v v v v v v n v v n v v v v v v v v v v v v v v v v n v v v v v M v v M v v v v v m S q.S t 6 8 > $ @ ",
"@ * 9 i i d { q.K v v v v v v v n v v v v v v v n v v v n v v v v v n v v v v v v v v v v v v v v v v v m x v S q.S t 6 6 > $ @ ",
"@ * 9 i y d %.2.{ S m v v v v v n v v v v v v v n v v v v v v v v v v v v v v v v v v v v v v v v v v v v v v J 1.S r 6 6 , $ + ",
"# = 9 i y d %.q.%.S m Z v v v v v v v n v v n v v v v n v v n v v n v v v n v v v v v v v v v v v v v v v v x v q.S q 6 6 > $ + ",
"@ & 9 y y k { 2.{ / J J Z Z m v v v v v v n v v v v v v v v v v v v v v v v v v v v v v v v v v v v v v v v v J 5.I t 6 8 2 $ @ ",
"@ = w y y d %.q.{ K / J / J v v v v v v v v n v v v v v v n n v v v v n v v v v v v v M v v v v v v v v v v v Z q.S y 6 6 2 $ + ",
"@ * 9 y y d %.q.-.J / / J J Z v v v v v n v v v v v v v n v v v v v v v v v v v v v J J J D v v v v v v v v v Z q.H q 6 6 < $ + ",
"@ * 9 i y d %.q.{ K / J _ J Z v v v v v v v v v n v n v v v v v v v v v n v v v v J J H J J v v v v v v v v v J 5.H q 6 6 < $ + ",
"+ = 9 i y k %.s.%.K K { J J v x v v v v v v v v v n v v v v v v v v v v v v v v v v J K J J v v v v v v v v v J q.S t 8 8 < $ + ",
"# = 9 i y d 2.s.-.K K K J Z v v v v v v v n v v v v v v v n v v v v v v v v v v v J J J J J v v v v v v v v x v ,.R r 3 6 < $ @ ",
"@ & 9 i y k e.l.-.J Z m m v v v v v v v v v v v v v b v v n n v v v v v v n v v v v v Z v v v v v v v v v v m S q.R t 6 6 < $ + ",
"@ * 9 i i k e.c.,.S M v v v v v v v v v v v v v v v n n v v v v v v v n v v v v v v v v v v v v v v v v v v x S e.V r 6 6 < % + ",
"@ & 9 i y k e.c.-.S v v v x v v v v v v v v v v v v v v v n v v n v v v v v v v v v c v v v v v v v v v v v v S ,.R t 6 6 2 % + ",
"@ & 9 i y g 2.c.-.J v v v v v v v v v v v v v v v v v v v v v v v v v v n v v v v v v v v v v v v v v v v v m S 5.R t 6 8 > $ + ",
"@ * 9 i y k e.c.1.J v v v v v v v v v v v v v v v v v v v v v v v v v v v v v n v v v v v v v v v v v v v v v S q.S t , 6 < % + ",
"+ & 9 i y k e.l.1.J Z v v v v v v v v v v v v v v v v v v v v v v v n v n v v v v v v v v n v v v v v v x v v S y.H i 8 6 > $ + ",
"@ & 9 y y f t.c.2.J J J D D D v v v v v v v v v v v v v v v v v v v v v v v v v v v v n v v n v v v v v v m Z -.j.%.y 3 8 > $ O ",
"+ & w i y k 2.c.8.J J J J J b v v v v v v v v v v v v v v v v v v n v v v v n v v v v v v v v v v v v v m S S ,.c.,.i , 8 > $ O ",
"+ & 9 i i g s.c.%.K T / / K K K K K M x v v v v v v v v x v v v v v v v v v m v M v v v v v v v x v v v V K T 2.c.*.y 6 6 < # + ",
"+ & 9 i i g y.c.-.K K T T { { T J K M v v v v v v M M v v v v v v v v v v v v v v v v M v v v v v Z v Z K T T -.n.&.y 6 6 : # + ",
"+ % 9 i y g e.c.-.K J / T { K { { K M x v v v v Z K K D M v x M v v v v v v v v v v m x v x v v D K K K T T K ,.n.&.y 6 , > # + ",
"O % 9 i i f ,.j.q.%./ / K K K K K K M M v v v M K { P D v v v v v v v v x v m x v x v x v v v M K { J J K { %.2.s.V q 2 , : # o ",
"O % 9 i i s S y.j.s.%.K T T T T / K K K K S S [ K J K K M v M x v v v v v v v v v v v x v v v v K J K K K -.g.s.I s 8 , , > # + ",
"O % 9 a a d m -.j.j.q.} -.-.-.-.} %.-.-.%.2.%.} %.-.} { K K K P S K K D T T T R J { / P [ Y Y ` -.-.-.%.-.2.y.%.z i t 8 6 > # o ",
"O $ 9 a x m S / %.t.l.c.l.l.c.l.c.c.c.c.c.l.f.f.d.d.d.d.s.q.q.t.q.s.q.s.j.c.j.j.l.j.l.l.z.z.z.z.l.c.l.c.c.s.V k f a a t 6 : # o ",
"O % 9 g M H / ' } e.g.f.g.l.f.g.f.g.t.t.g.s.4.&.2.2.q.4.-.q.q.&.2.2.2.q.j.g.g.j.j.j.s.s.f.f.f.f.s.s.s.s.s.%.V g f a a i t , # o ",
"o & u B R ` T %.j.j.` I I I I I I z z z z z l k k l z z z z z z z z z V I I I I I B v k z z z z l z z z z B ,.' k a a d a 8 $ o ",
"o * p / R [ *.t.f.w.V g g k k k k f f f s f s s s s s s s a s f s f k k k k k k k k f s s f a s s s s a a k *.e.I k g a d q % o ",
"o * h T R %.f.f.' B k k k k k g j f s s s s s s s s s s s s s a s s f f g k k k k g f f s s s a s s s s s f k I 5.:.k a d w % o ",
"o & w j T y.z.&.B g k k g k k g f s s f s f s s s s s s s s s f d s s f g k k k k g f f f f s f f s f f s s s k :.5.I g y 7 $ o ",
"    & 5 P z.*.B z k g g g g g g f f f f f f f f s s s s f f f f f f f f g f g f f f f f d f f f f s f s s f s g x / i.v 4 $     ",
"    . * h l u u r u t e e e e e e e e e e e e e e e e e e t e e e e e t e e e e e e e e e e e e e e e e e e e e w r c h * .     ",
"        = - & & & & % % % % % % % % % % % % & % % % % % # % % # # & # % % # & # % % # & # & % % % & % % % % % % % & = =         ",
"        X X X X X . o o X X X X X o o X o X X X X X X X X O O X O X o o O X O O X X + X X X X X X X X X o X o o X X o O         "
};
