/* XPM */
static char *_76b121808ce430f956533e5dbb1bad9U7xxmG9vu9Ve01Dg[] = {
/* columns rows colors chars-per-pixel */
"64 64 198 2 ",
"   c #573522",
".  c #5C3925",
"X  c #633D27",
"o  c #663F28",
"O  c #5F463F",
"+  c #6A452A",
"@  c #75462C",
"#  c #77492F",
"$  c #6A4632",
"%  c #774A30",
"&  c #7A4C32",
"*  c #754E38",
"=  c #7C5235",
"-  c #76523D",
";  c #78533E",
":  c #7C5939",
">  c #1B3351",
",  c #1D3958",
"<  c #263B55",
"1  c #4D3F40",
"2  c #274363",
"3  c #294464",
"4  c #2A4769",
"5  c #2E4A6C",
"6  c #394C66",
"7  c #314C6D",
"8  c #324E70",
"9  c #37557A",
"0  c #4E4040",
"q  c #564443",
"w  c #444A5C",
"e  c #7A5741",
"r  c #465670",
"t  c #864E30",
"y  c #855336",
"u  c #8A5334",
"i  c #865639",
"p  c #8B5639",
"a  c #85593C",
"s  c #8D593C",
"d  c #905637",
"f  c #935B3A",
"g  c #995E3C",
"h  c #986634",
"j  c #9E603F",
"k  c #A3613C",
"l  c #AC663F",
"z  c #AC7737",
"x  c #B17A38",
"c  c #8B5D46",
"v  c #955E40",
"b  c #8B624C",
"n  c #926246",
"m  c #9A6242",
"M  c #9C6C46",
"N  c #966649",
"B  c #9A674A",
"V  c #9C694D",
"C  c #8D6758",
"Z  c #8E6B5D",
"A  c #916A56",
"S  c #9E6B51",
"D  c #A36644",
"F  c #A96743",
"G  c #A66845",
"H  c #AA6B47",
"J  c #A56B4A",
"K  c #AC6D49",
"L  c #B06A44",
"P  c #B06F4A",
"I  c #AE704E",
"U  c #B5744E",
"Y  c #B8754F",
"T  c #A06C52",
"R  c #AD7252",
"E  c #A67559",
"W  c #AB795C",
"Q  c #B27655",
"!  c #B97650",
"~  c #B67B54",
"^  c #BC7A54",
"/  c #B57A5A",
"(  c #BA7D5C",
")  c #957265",
"_  c #957669",
"`  c #A67B66",
"'  c #AD7D62",
"]  c #B37F62",
"[  c #C17F59",
"{  c #B1814C",
"}  c #B5875A",
"|  c #BF9251",
" . c #AB826B",
".. c #B78264",
"X. c #BD8363",
"o. c #BA866A",
"O. c #BE896B",
"+. c #BF936F",
"@. c #A1857C",
"#. c #BB8C74",
"$. c #BF927B",
"%. c #C3825E",
"&. c #C29552",
"*. c #CEA25F",
"=. c #C38461",
"-. c #C88763",
";. c #C68865",
":. c #C98965",
">. c #C08768",
",. c #C48B6B",
"<. c #CD8E6B",
"1. c #D08F6C",
"2. c #CF906D",
"3. c #D1916E",
"4. c #C38E71",
"5. c #C59175",
"6. c #CC9273",
"7. c #C5947A",
"8. c #CB977A",
"9. c #D49674",
"0. c #D49977",
"q. c #D49A7B",
"w. c #DA9E7D",
"e. c #D4A864",
"r. c #D7AF73",
"t. c #D8A07D",
"y. c #E2B97B",
"u. c #3D5D83",
"i. c #3B5E8B",
"p. c #3C618F",
"a. c #3F6A9F",
"s. c #486285",
"d. c #42648E",
"f. c #5B6D8E",
"g. c #446C9D",
"h. c #4A6B98",
"j. c #5B6F92",
"k. c #52719D",
"l. c #456EA1",
"z. c #4671A6",
"x. c #4772A8",
"c. c #4A74A9",
"v. c #5E79A5",
"b. c #577CAC",
"n. c #4778B5",
"m. c #4A7CBC",
"M. c #547EB4",
"N. c #527DB8",
"B. c #4B7FC1",
"V. c #7691BA",
"C. c #4C80C2",
"Z. c #5686C4",
"A. c #5387C9",
"S. c #568BCD",
"D. c #588DCE",
"F. c #5A8FD2",
"G. c #5E93D4",
"H. c #6292CD",
"J. c #6797D3",
"K. c #6297D9",
"L. c #669ADB",
"P. c #6A9EDE",
"I. c #709BD3",
"U. c #6A9FE0",
"Y. c #6AA0E1",
"T. c #868B9F",
"R. c #A38984",
"E. c #A68D89",
"W. c #A9908B",
"Q. c #BC9A8D",
"!. c #9096AC",
"~. c #C29581",
"^. c #C99B84",
"/. c #D79F80",
"(. c #C8A48E",
"). c #DDA281",
"_. c #D5A58B",
"`. c #DBA589",
"'. c #DDA98D",
"]. c #E1A685",
"[. c #E3A887",
"{. c #E4A98A",
"}. c #E4AE91",
"|. c #E7B194",
" X c #E9B092",
".X c #EAB69B",
"XX c #E6B99F",
"oX c #EEB99E",
"OX c #EEBFA5",
"+X c #E7C594",
"@X c #EEC0A6",
"#X c #E7CCA4",
"$X c #F4C2A8",
"%X c #EED4AB",
"&X c #E6D6BE",
"*X c #8EA1C5",
"=X c #95A6C7",
"-X c #96A8CA",
/* pixels */
"m g g g g g g g g g g g f f g g g g g g g g g g g g g f g g f g g f g f g g g g g g g g g g g g g f g g g f g g g g f j g g f W ",
"8.6.6.2.6.6.<.5.6.6.6.6.6.6.6.6.6.6.5.<.6.5.5.6.<.6.2.6.6.2.6.6.6.2.6.6.2.6.6.<.6.6.5.<.5.6.6.6.<.6.6.6.6.6.2.6.6.<.6.2.6.6.6._.",
"6.....,...,.o...,...,.,...<.} >.,...4...>.,...<...o.,...,.o.o.,...,.,.o.,...,.O...,...4.;...,...o.,...,...o.,...,.O.o.,...,.O.7.",
"N N N n N n N n n n n n N c B n n B c N n n B c n N n N n B n n N n n n n N n n B c B n n B n N n n N n B n n B n n n n N n n  .",
"c i y & y & y y & y & t y & y & t y & y y & y & i y & p m s = & i & f m & y & & t & y & & y & y y & y & y y & i & = y & i & V _.",
"g u p g g g g f f f f f f f f f f f f f f f f f f f f d U f u g f u m G p f g g f f f f f f f f f f f f f f f f f f f f f u ( @X",
"v F D u u u u y u u u y u u u u u u u u u y u u u u p K U K D u u G U U G u u u y u u u u u u u u u u u u u y u u u u u u D ,.@X",
"m K U D G G G D G G G G D D G D D D D G D D D G D D H U U U U D G U U Y U G D D G G G D G D D D D G D D D D D G D D G D G U 2.@X",
"$ @ % % % & & % % % & % & % & % & % & % & % & & % % % % # # # & % % % % # & & % & & % & & & & & & % & % & % % % & & & & % # W OX",
"& y p i p p & @ @ @ @ @ @ @ @ @ @ @ @ @ @ & p p p y @ @ @   . u p p y @ @ @ y p p i # @ @ @ @ @ @ @ @ @ @ @ # @ @ & p p p p ] OX",
"v P ! ! ^ w.] Q ] ( ( ] ( ] ( ( ( ] ] / ( / D P m B ( ( ( #.` = U f M ( / X.w.0.%./.W / ] ( ] ' ( ( ] ( ( ( ( ( ( I G Y ! U 2.OX",
"v K ! U ^ |.^.] 6.I J J J J J G J J H J >.[ v P y c O.X.O..X~.. G y n >.o.,.XX{.=..Xo.6.,.J J S J J J G J J J I <.W j U Y U <.OX",
"v P Y Y ^ |.7.] 6.q 1 1 1 1 1 1 1 0 q c } X.g U D Q `.`.`.` A p K m / '._.`.q.:.=..Xo.6.' 0 O . 0 0 0 0 0 0 q m ,.Q j U U U 1.@X",
"v P Y U ^ |.7.] 4.< 2 2 > 4 > 3 2 > 7 c X.X.j P U Q ' 0. X- X U ! ! Q ..0. X%.U =..Xo.8._ > 4 > , 4 > 4 > , r m ,.Q j U Y U 1.@X",
"v K Y U ^ |.7...$.6 2 3 7 2 8 3 3 5 2 c X.=.j I ! m y ^ ).- o U ! ! m i ^ `.%.U =..Xo.8.@.3 3 7 5 3 5 2 8 5 w B ,.Q j U U U <.@X",
"v H Y U ^ |.7.] 7.r 4 8 u.7 u.8 8 u.6 c X.X.g U ! G & B /.- o P ! U m & J ).%.U =..Xo.6.@.8 4 u.9 8 u.5 u.9 w V ,.Q k U U U <.@X",
"v P U U ^ |.7.] $.r a.g.d.l.d.l.g.d.l.A [ X.v P ! m t J /.e o U Y Y j y J ).%.U =..Xo.0.@.9 l.d.g.g.d.l.p.g.f.V ,.Q j Y ! Y <.OX",
"v P Y Y ! |.8...$.s.g.l.z.z.x.l.z.x.h.C X.>.j P ! D i ^ ).- o P Y Y m p %.[.%.U %..Xo.6.R.i.l.x.l.z.z.z.x.x.f.V ,.Q g U Y U <.OX",
"v K Y ! ^ |.7.] $.s.l.z.l.z.l.z.z.l.k.C [ >.v Y ! m u ^ ).- o Q U Y m p %.).%.U =.XXo.8.@.i.l.l.z.x.g.c.l.l.j.S ,./ g Y Y U 1.OX",
"j P Y P ^ |.8...7.s.n.n.x.B.x.m.m.z.N.Z ] >.g P ! D y [ ).e o P Y Y m u %.].%.U %..Xo.6.@.p.m.c.c.m.x.m.l.n.v.S ,.Q g ! Y U <.OX",
"v H ! U ! |.7.] Q.h.n.B.B.C.C.C.B.B.N.Z [ ] j P ! m i ^ /.e o P Y Y m p ^ [.%.U =.XXo.6.R.a.m.B.C.C.C.C.C.C.v.B ,.Q j Y Y U 1.OX",
"v H ! U ^ |.8...7.h.n.B.C.C.B.B.B.B.N.Z >.>.g U ! D i [ ).e o ! U Y m a %.].=.U =..Xo.6.R.a.B.B.C.C.C.C.C.C.v.S ,.Q j U U U <.OX",
"v P ! U ^ |.7.] ~.h.n.C.B.B.B.B.B.B.N.Z ( =.g P P D u [ ).e o P Y ! m p [ ].%.U %..Xo.8.E.a.m.m.C.C.C.C.B.C.v.S ,.Q j U U U 3.OX",
"v K ! P ^ |.8...7.k.m.C.S.C.A.C.C.A.N.Z X.>.g Y ! D y [ /.; o ! Y ! m p [ ].%.U =..Xo.9.E.l.B.A.C.C.A.C.A.A.v.S ,.Q k U U U <.OX",
"v K Y U ! |.7.] ^.k.B.D.D.S.D.A.D.A.Z.Z =.>.g U Y D u ^ ).e o P U Y m p %.[.%.U =.XXo.6.E.z.A.D.D.A.D.A.S.S.v.T ,.Q j U U U 1.@X",
"D K Y U ^ |.7.] ~.k.D.G.D.K.D.G.K.D.H.) ] [ v P Y D p ^ ).- o P Y Y m p %.t.%.U =..Xo.6.E.c.G.D.G.G.D.K.D.F.V.T ,.Q j U ! U <.@X",
"v H U U ! |.8.] ~.v.H.L.K.L.K.L.K.J.I.) =.>.g Y ! D y ^ ).e o ! Y Y m p %.].%.! =..Xo.9.E.b.K.K.K.L.K.L.K.L.V.T ,.Q m U U U 1.@X",
"v K Y Y ^ |.8.] ~.v.J.U.P.Y.P.U.P.P.I.) ] =.v P ! D i [ /.- o P U Y m p %.].%.U %..Xo.8.W.M.L.P.P.P.P.U.U.U.V.T ,.Q D U U U <.OX",
"v P Y U ! |.8.] ~.b.H.U.U.P.U.U.U.U.I.) [ [ j P U m u ^ ).e o U Y ! m p } [.%.Y =..Xo.6.W.N.L.P.P.U.U.U.U.U.V.T ,.~ j U Y U <.@X",
"v P Y U ^ |.8.] /.T.*X-X*X-X*X-X-X*X=X` >.X.v P ! D i [ ).- o U U ! m p [ w.%.U =..Xo.q.^.T.=X*X=X-X*X-X*X=X!.' ,.Q j U Y U <.@X",
"v P Y U ! |.4.E 5.5.5.6.6.6.6.4.5.6.4.( >.] j U ! D i ^ ).- o P ! Y m p %.].%.Y =..X/ >.7.5.6.5.5.6.5.5.4.6.,./ ,.Q j U U U <.@X",
"v P Y U ! w.>./ / / / / / / / / / / / / 6.6.G P ! m i ^ ).e o U U Y k u [ ].%.U [ /.] / / ] / / / / / / / / / } 0.X.G U Y U 1.oX",
"v K ! U U U <.9.9.9.9.9.9.9.9.9.9.9.9.0.0.<.! U U D p ^ ).; X I U ! m p %.].%.U ! ! 6.9.0.q.9.9.9.9.9.9.9.9.9.9.9.[ U U U U <.OX",
"v L U U ^ U U U Y Y Y ! Y Y Y Y U U U ! Y U U U ! D i ^ ].; X U U ! m p %.].%.U U U Y Y U U Y Y Y Y U Y U U U Y Y ^ Y U ^ U <.OX",
"v P U ! U U P L F K K F F H H H G K F H G P U ! H s i Y ,.A : m U G f p ^ ,.:.%.! U K K G H K K H F G H F K K L K I U Y U U <.OX",
"v I ! U U ( k g D D k D D D G F D F D F Q / H m i n ' <.f E W n m = & n <.W o.,.-.^ j j D D D k D D F F D D D F / Q K U U U <.OX",
"j K ! U ^ ,.P k U [ [ [ [ [ -.[ [ [ -.3..X'.f f i B 7.0.n V E E f % & M ).7.W ..0.,.F L ! [ =.[ [ [ [ [ [ -.[ /.oX5.j U U U 1.OX",
"v K ! U Q 6.I j k :.1.9.1.1.1.1.1.1.3.oX$X'.m U f y a I M  . .: { M a p I N 6.2.^ ,.F g P 1.1.<.1.3.1.1.3.3./.OX$X6.v Y U U 6.OX",
"v K U U ^ [ I j J [ [ [ -.=.-.-.=.-.-.`.OX'.g U U m i ^ t.e * r.+Xy.} y ^ t.%.Y / :.F j P [ =.=.=.>.=.=.[ [ 6.}.OX8.v ! U U <.OX",
"v L ! U [ [ ( ( ( ( 4.[ ] X.[ ] [ [ ] >.{.`.G U Y D y ~ t.- : #X&X%X7.u } `.%.U ^ =.^ [ ] >.=.X.[ X.[ >.( >.( 6..X6.D U U U <.OX",
"v P U ! U U 3.].].).).].).].].).]./.).].].0.^ ! I m f ~ {.A ) &Xr.&X(.c } {.1.[ ! ^ w.].).).].).].t.].].).].).].].<.Y U U U <.OX",
"v K U U U U [ [ -.-.-.-.-.-.-.-.:.:.-.:.-.[ [ P v f G Q  X^.+.| &.&.{ J ~ |.|.0.U P =.-.:.-.-.:.-.-.-.-.-.-.-.=.-.[ ^ Y U Y <.OX",
"j K ! Y U l 9.{.6.6.6.6.6.6.6.9.6.6.6.6.).].:.^ U D & m w.e : r.&.r.} y m ).-.! P L /.0.<.6.6.6.6.5.6.6.6.5.5.9.{.).[ ! ! U <.OX",
"v I Y Y U l 9./.p g g v g v g v v v v d 4.[.<.^ U D i ^ ).- % *.*.e.{ p [ ].%.Y U L /.J p m g v g g m g m g f f /.).:.! ! Q <.OX",
"v K Y Y Y l 9.q.d / :.<.:.:.:.:.:.:.[ d ,.{.1.! ! m p [ w.- o z x x h p } [.%.! U L w.D f [ :.:.:.<.:.:.:.:.! f w.].-.U I U <.OX",
"v K Y U Y l 9.q.u G 3.]. X X X X|.[.=.d ,.{.1.! ! m i ^ ].- + P Y U j p %.].%.U P L /.B u Q w.}. X X X X X/.Q f /./.-.! ! U ,.OX",
"v K Y Y U l 9.q.u j I <. XoX.X.XOX.X[ d ,.[.1.! Y D u ^ ].- o U U U k p [ ].%.U P L w.J u F ^ {.oX.X.X.XOX{.! f /.].-.U U U 1.OX",
"v K Y Y U l 3.q.u D K [ 1.1.1.1.w..X[ f ,.{.1.! U D y [ ).- o U Y Y m p [ ].%.U P L w.F u F Q :.1.3.3.3..X{.U f w.w.-.! U U 6.OX",
"j K Y Y U l 9.q.u j K ( <.<.1.<.w..X[ d 4.[.1.! Y D y ^ ).; o P Y ! m p %.].%.Y P L w.B u D Q :.1.1.1.1..X{.! p /.).-.Y Y U <.OX",
"v K Y Y U l 9.9.u D K [ <.3.1.1.w..X[ d 4.{.1.! Y D i ^ ).; o U U ! m p [ [.=.U U L ].B u F Q -.1.1.1.3.OX{.Q f /.w.-.Y Y U <.OX",
"v K Y Y U l 9.9.u k I ( 1.1.1.1.w..X[ f ,.{.1.! ! m i [ ).; X Q Y Y m p [ ].%.Y P L /.D u F Q -.1.1.1.3.oX{.Q d ).w.-.Y U U <.OX",
"v K Y Y Y l 9.q.u j I ( :.:.1.[ w..X[ p ,.{.1.! ! D u ^ ).; o P U Y m u [ ].%.U P L ).m u F Q -.:.:.:.1..X{.Q f /.].-.Y Y U <.OX",
"v K Y U U l 9.q.d j I I F F F F ] }.[ f ,.[.1.^ ! m y ^ ).e o ! Y Y m p [ ].%.U U L w.F u F P F L F F H '.).Q d ].w.:.Y U U <.OX",
"j K Y Y U l 9.q.t j D j k D j D G I ^ d ,.[.<.! ! D p ^ ).- o P Y Y m p %.].%.Y P l /.J t F G D j F D D K Q K v t.w.-.Y U U <.OX",
"v K Y Y U l 9.q.t d d d d d v d d d d t 4.{.<.! ! m p [ ).- o ! Y Y m p [ ].%.U U L w.J t d d f d d d d d d d d t.].:.Y U U <.OX",
"v P Y Y Y l 9.q.v d d c d p d p d p f d 6.{.<.^ ! m y ^ ).e o P Y ! m p [ ].%.Y P L ).J p p p p f p d p p d p v ].w.%.U U U <.OX",
"v K U ! Y F <./.6.6.8.9.8.9.6.8.9.8.9.8./.w.1.! Y D i -.`.- + U U Y m s ;.{.%.Y P L 0.0.9.8.6.9.9.8.9.8.8.0.6.8.).0.-.! U Y <.OX",
"v Q ^ [ [ P I R R R R Q R R R U I Q R R I / 1.[ P v B [. Xb # J ~ U j V }.|.:.~ U P I Q R I R R R R R R I R R R R [ 1.^ ^ ( 9.OX",
"v 1.[.].].).).).).]././.].`./.].]./.)././.].[./.B f Y [ } 9.` * 6.m j Y %.%.t.6.J w.).)./.).).).t.).t.).).).).).].].[.].].].[.OX",
"v Q [ %.%.[ [ =.[ [ [ -.[ [ [ [ [ =.[ } =.[ ( B H P Y [ Y B E o.N I U ! Y [ w.6.m } %.%.=.[ =.%.%.%.%.%.%.%.%.%.[ =.[ =.%.[ 9.OX",
"v F ! ! ! P ! P U U U U U U U U U U U U ! ! K = K [ Y [ Y p V /.p P [ Y [ [ w.1.m U U U U U U U U U Y U U U U U U U U U U U <.OX",
"D K ! U ! ! ! ! U ! ! ! ! ! U ! ! ! ! ! Q ! P y K ^ [ Y ! p V q.a L Y ^ Y [ w.1.j U U U ! U ! U Y U U Y U U U ! U ! ! U ! U <.OX",
"v D P K I P P I P P P P I P I I P P P P K P F t F U L U U y N 8.i H U U U ! w.,.f I U K I U U K K U U K K U U I U K U K I K ;.OX",
"X X X X X X X X X X X o X X X X X X X X X X X   X X X X o   . $ . . X o X o $ + . . X X X X X X X X X X X X X X X X X X X . + Z "
};
