/* XPM */
static char *_05e00f38fb043f5c6c607a189f0dcd6nDAPecgoRKRFGDZB[] = {
/* columns rows colors chars-per-pixel */
"64 64 250 2 ",
"   c None",
".  c #020201",
"X  c #00030B",
"o  c #0A0A05",
"O  c #020714",
"+  c #07121C",
"@  c #160F11",
"#  c #291802",
"$  c #381A01",
"%  c #2E1B17",
"&  c #382806",
"*  c #3D351C",
"=  c #2F2D13",
"-  c #0E1726",
";  c #291E22",
":  c #1B252A",
">  c #392827",
",  c #3E3435",
"<  c #302E34",
"1  c #1F201C",
"2  c #4A360B",
"3  c #493817",
"4  c #563917",
"5  c #503D0D",
"6  c #623C08",
"7  c #443A37",
"8  c #4D3B29",
"9  c #4B4119",
"0  c #5A441A",
"q  c #6A4705",
"w  c #754D16",
"e  c #7A5617",
"r  c #6E4D0D",
"t  c #47492C",
"y  c #564525",
"u  c #5B512A",
"i  c #4A4836",
"p  c #544C32",
"a  c #584B36",
"s  c #5A533A",
"d  c #4F503F",
"f  c #644A26",
"g  c #785B26",
"h  c #644E36",
"j  c #675739",
"k  c #715C39",
"l  c #685A2A",
"z  c #766538",
"x  c #6B6132",
"c  c #7D630C",
"v  c #323A46",
"b  c #523E40",
"n  c #3F4646",
"m  c #494842",
"M  c #585648",
"N  c #5A5652",
"B  c #564E4B",
"V  c #665847",
"C  c #675C53",
"Z  c #6F5847",
"A  c #5D614C",
"S  c #6C6648",
"D  c #786749",
"F  c #6A6555",
"G  c #766955",
"H  c #7B725A",
"J  c #70754F",
"K  c #777566",
"L  c #706E6B",
"P  c #845A19",
"I  c #865708",
"U  c #8D691D",
"Y  c #855D22",
"T  c #885E29",
"R  c #8C652B",
"E  c #8A6626",
"W  c #946A25",
"Q  c #976C29",
"!  c #96732D",
"~  c #9C712D",
"^  c #977525",
"/  c #896834",
"(  c #966C35",
")  c #9C7433",
"_  c #997838",
"`  c #8A722E",
"'  c #A5772B",
"]  c #A27533",
"[  c #A57A35",
"{  c #AC7D34",
"}  c #A37D3A",
"|  c #AB7E38",
" . c #B07C2F",
".. c #9B7946",
"X. c #857657",
"o. c #897048",
"O. c #A47D45",
"+. c #847A6A",
"@. c #8F7F6F",
"#. c #AC823C",
"$. c #A9853A",
"%. c #B4853A",
"&. c #B98638",
"*. c #AF923E",
"=. c #C7933C",
"-. c #C58D39",
";. c #958652",
":. c #AA8746",
">. c #B58B42",
",. c #B98C45",
"<. c #B89449",
"1. c #B89857",
"2. c #AC8F51",
"3. c #898769",
"4. c #988964",
"5. c #86827A",
"6. c #978B74",
"7. c #909472",
"8. c #A79666",
"9. c #B79A66",
"0. c #AF9A72",
"q. c #B7A678",
"w. c #B5AC73",
"e. c #CB9445",
"r. c #CC964A",
"t. c #CC9B4D",
"y. c #C49548",
"u. c #D39543",
"i. c #D49A44",
"p. c #D29D4D",
"a. c #D89543",
"s. c #CD9D53",
"d. c #C69956",
"f. c #D89E56",
"g. c #C9A24B",
"h. c #CDA45B",
"j. c #C7A256",
"k. c #D5A659",
"l. c #D1AB55",
"z. c #E2A75D",
"x. c #C29D69",
"c. c #C8A868",
"v. c #D6AA67",
"b. c #C8B369",
"n. c #D7B36B",
"m. c #CBAD76",
"M. c #CAB678",
"N. c #D8B878",
"B. c #E8A965",
"V. c #E8B768",
"C. c #F6B568",
"Z. c #E5B97A",
"A. c #EFB574",
"S. c #DAC175",
"D. c #CAC07A",
"F. c #E3C47C",
"G. c #EAC879",
"H. c #F8C979",
"J. c #EDD17C",
"K. c #F2D27B",
"L. c #FCD17B",
"P. c #E3C26B",
"I. c #7A7F82",
"U. c #7E8180",
"Y. c #928E8B",
"T. c #A59990",
"R. c #B6AE90",
"E. c #999BA7",
"W. c #AEADB1",
"Q. c #CAB888",
"!. c #D8BB85",
"~. c #C4B894",
"^. c #CEB493",
"/. c #EDB987",
"(. c #C8BCB1",
"). c #DAC588",
"_. c #D9C696",
"`. c #D6CF94",
"'. c #ECCD84",
"]. c #E7C887",
"[. c #F3CD83",
"{. c #F5CB87",
"}. c #ECD287",
"|. c #F4D384",
" X c #FDD584",
".X c #F3D48C",
"XX c #FBDC8B",
"oX c #F8D88C",
"OX c #E4CB92",
"+X c #E6CA98",
"@X c #F6CA93",
"#X c #EBD393",
"$X c #E9D699",
"%X c #F4D492",
"&X c #FDDC94",
"*X c #F3DC9C",
"=X c #FDDC9C",
"-X c #F6D796",
";X c #FEE294",
":X c #FDE39C",
">X c #FFEC9D",
",X c #F9E799",
"<X c #FDEB97",
"1X c #D8C9A5",
"2X c #DDD5A7",
"3X c #DCD7B6",
"4X c #CEC7AE",
"5X c #E9D7A7",
"6X c #F7DCA9",
"7X c #E5D8B6",
"8X c #F7DBB6",
"9X c #EDCEA6",
"0X c #EBE4AA",
"qX c #FEE4A3",
"wX c #FEECA4",
"eX c #FDEBAC",
"rX c #F6E5A8",
"tX c #FEF3A4",
"yX c #FEF3AC",
"uX c #FFF9AD",
"iX c #ECE5B7",
"pX c #FDEDB3",
"aX c #FAE8B9",
"sX c #FEF3B3",
"dX c #FFF4BA",
"fX c #FDFAB9",
"gX c #DDE1B3",
"hX c #DAD8CA",
"jX c #C8CACA",
"kX c #E6DCC9",
"lX c #EDE5C7",
"zX c #F8E8C8",
"xX c #FEFDCB",
"cX c #FEF6C5",
"vX c #EAE6D7",
"bX c #F6ECD5",
"nX c #FBF4D3",
"mX c #FCFDD4",
"MX c #FFFEDB",
"NX c #F9F5D9",
"BX c #EBEAE5",
"VX c #FEFDE3",
"CX c #F3F4EC",
"ZX c #FEFDEB",
"AX c #FCF5E7",
"SX c #FEFDF4",
"DX c #F6FDFE",
"FX c #FDFEFD",
"GX c #F9F8F7",
"HX c #EFF2EF",
/* pixels */
"                                                                                      6.$ ^.zXX.3                               ",
"                                                                                    H 0 +X6X+XcX+.7                             ",
"                                                                                  j 0 +X6X-X%XQ.u                               ",
"                                                                                9 l eXwXG.[.&XN.2 7.                            ",
"                                                                              p l uX*XS.|.K.G.wX5X&                             ",
"                                                                            y z yX.XG.}.[.H.K.K.;X).#                           ",
"                                                                          y x eXS.XX&X&XqX&XL.XXoXwXq.=                         ",
"              C                                                           u rX*X>X%Xv.2.:.} &.k.G.wXaXy                         ",
"            i 6.G h G 6.                                                3 aX$X$X-X` q r 6 T P 6 ^ .XsX0.p                       ",
"            * ~.8X_.4.k h 8 a X.                                      3 _.$X*X*X` r g ..T T ( ( e ` ).yX9                       ",
"          i D _.8X#X6XdX6X_.0.o.p p s K                             & 0.rXOXqXc.r g Y T ( ( R ( _ q $.uX..D                     ",
"        7 a nX$X'.oX|.G.}.#X6XpX0X`.4.x u u +.                    p X.xX_.#XrXE q ( _ R ( ..( ( E >.r b.  j                     ",
"          X.5 b.K.K.J.K.|.}.}.}.).qXpXpX`.8.l 9 j               F h aX$X#X*X!.E e e c e e ( ..( _ ^ c $.  j                     ",
"          j l oXK.K.K.J.K.XX;X<X;X:X-X}..XeXwX`.;.* 8 R.Y.b 8 8 h Q.*XM.b.N.b.n.b.D.S.j.$.! E E ` ^ 2.c   D                     ",
"        6.4 eXoXK.J.|.<X}.P.g.:.<.<.N.:X&XF.].=X*XpXq.y 4 Z @.Q.+XOXN.S..X}.'.wXtX>X<XtXtX%XN.9.*.` ` `   S                     ",
"        & _.qX}..X>X#X1.U e e e q U P ) ].qX{.}.oX'.&XOXOX6X6X6X-X&X}.G.}.XX<XtXtX>X>XtXtXtXyXfXtXS.;.z 8.H                     ",
"      t 8.cXZ.%X6X1.w w Y Y Y Y R Y Y e W Z.eX{.G.G.XXXXoX%XG.}.].'.}.wXuXuXyXyX*XwXtX>X>XtXwX,XfXsXq.1XR.i                     ",
"      u 6XOX=X&X..P w R ( / / ] } T ( ) w P v.6X[.|.G.K.K.K.oX}.}.:XdXdX$X$X2X0XsXdXsXrX,XrXwXwXyX`.nXMXZXJ K                   ",
"    G 4.pX].qX| I T ( R R ( ( Y Y ( Y E _ P P d.qX&XG.L.G.P.|.G.eXrX9X1XgXzXlX`.1X2XiXdXfXrX0XuX0XiXVXSXHXCX=                   ",
"    p Q.*X=X<.q W W W ~ Q W ~ :.Q ) | ) Q R E w O.{.&X[. XK.}.qX+X1X3XVXSXCXZXZXVXlX3X2XiXyXyXyX2X7XSXFXDXHX4X1                 ",
"    V   qXc.P W Q W W W ~ ] Q W _ R Q ! ! ! ! R P e v.&XG..X-X!.1XzXSXSXFXFXFXSXZXZXNXlX0XiXyXsX5XbXGXGXFXSXNX7.A               ",
"    X.  6X) W U ~ ~ ~ ] ) ] _ } $.Q ) ) ( ~ Q ~ I ' L.H.[.=X!.5XzXAXSXSXFXFXFXGXSXSXGXSXlX0XyXdX1XAXSXGXSXZXmXvXt               ",
"    D 8X!.W I [ ~ ( ] ] ] ] ] _ } ) [ ] ] [ Q U  .H. X{.@X!._.zXbXZXSXFXFXFXFXDXCXFXDXDXVXiX9XaX8XAXGXCXZXMXvXmX7.J             ",
"    D   m.q { W ~ ] ] [ [ [ | | | ) | [ [ [ Q ' G.;X.X*X`.^.lXvXAXSXFXFXDXFXDXFXFXHXFXCXZXVX5X8XbXAXHXjXGXZXNXnXgXt             ",
"    D   9.E ^ U ^ ' [ [ | | | | %.' | %.[ Q | n.>XF.#X_._.lXvXhXGXFXDXFXDXFXFXFXFXGXFXFXAXbXVX3XkXFXL X : BXSX3XxXS             ",
"    l   b.c ^ $.' [ [ { |  .&.&.%. .%.| ' ' y.@X.X).$X).2XNXhXvXFXDXFXFXFXFXFXFXGXGXGXjXY.BXAXAXAXFXE.X O U.VX8XxX;.+.          ",
"    D 8.sX` ` ^ $.[ $.$.{  . . . .&.&.'  .,.p.{.[.'.#X_.5XlXvXBXDXFXFXFXFXFXFXFXGXGXjXX @ @ jXFXAXBXW.O O < ZXaXfX9.+.          ",
"      9   wXg _ _ } $.%.%.| e.-.&.-.&. .,.t.s.G.XXK.].#X5XlXbXhXFXFXFXFXFXFXSXSXGXFXFXI.X O < GXGXY.. - X , zXaXwXw.D           ",
"        & _.5X..` _ :.:.>.>.y. .-.-.&.-.y.y.t.H.H. X[.N.aXzX7XBXFXFXFXFXFXFXSXFXGXE.E.L O O + GXSXL . + X % zXOXF.!.4           ",
"          s H 9XQ.1._ } :.O.| O. .O.,.y.r.y.p.P.L.L.|.Z.-XzXkXBXGXGXFXFXFXFXFXFXDX< X O - + O Y.K i n i @ 8 8XZ.G.m.3           ",
"            T.s 0.OXrXOXm.m.!.Z.=X/.B.y.r.s.&.V.L.L.{.].+XzXlXhXGXFXDXDXDXFXFXGXDXv O O + O v n d p M M B h .././.:.Z           ",
"                j z X.q.!.8X+X!...O.<.v.f.s.-.k. X[.[.#X+X7XbXhXBXDXDXDXDXDXDXFXHX: X + O v C M s s d i V y 6 ].N./ D           ",
"                    6.X.X.D D D o.6 1.c.t.t.i.p.[.oX'.OX^.2XbXkXhXHXFXFXGXFXDXDXFXn X : + N C C V s s d a h 4 O.OXf T.          ",
"                            AXZXVX8 9.d.d.p.i.=.P.&X.XOX+X+X8XzXlXbXAXSXFXSXSXFXZXW.X + < B C h V a M M t V f f 9.4             ",
"                                SX@.0 /.j.p.i.-.l.oXXX{.%XOX+X9X8X8XzXAXVXZXZXZXAXAXL O v C G j V S d M i a h h 3 4.            ",
"                                  lX3 9.c.e.a.=.e.V. X X XA.A.Z./././.9X8X8X8XzXzXAX(.@ , C k Z h F M M A i B V # 4X            ",
"                                    6.2 [.r.=.a.=.g.L.L.C.H.A.B.f.B.B.B.B././././.7XL % , C D j V V C m M d M B * +.            ",
"                                    CXZ / v.a.=.p.=.i.H.L.C.z.C.B.f.f.f.f.B.B.B.].+Xa @ 7 A H j V C C B V a u V ; B             ",
"                                      hX2 x.V.i.e.e.e.e.z.H.A.C.B.B.B.C.B.C.A.A.[.].4 > > N F A C C V V h p u F .               ",
"                                      ZXq.$ d.p.y.s.t.e.e.p.C.C.C.C.C.C.C.C.C.C.H.].4 > ; N K A F M C G a F F > <               ",
"                                      3.u z :.k.f.s.r.r.r.e.u.u.a.a.a.a.a.a.u.u.e.<.4 % > 7 L K A K S M H M 1 o                 ",
"                            D X.T.6.9 y 0.dXZ.| >.d.v.r.r.r.u.=.a.a.a.a.a.u.u.=.=.j.f % 7 ; m F K F M M 1 .                     ",
"                        C 8 9.;.o.D 8.rXaX!.=XXX,.,.y.r.f.p.p.f.u.u.u.r.p.u.e.y.g.F.0 o . . o . o .                             ",
"                      & ..  @X>X-XpX;X[.=X=XXX{.Z.,.] ,.k.k.r.e.r.r.s.f.s.g.g.j.>.c.k $ % . # o .                               ",
"                          2.d.p.V.z.G.XXG.n.n.v.h.h.d.>.{ %.y.r.,.,.>.:.:.:.:.2.2.8.4XlXkXp 7.                                  ",
"                      8 g ,.O.' &.&.r.d.k.v.v.1.,.<.%.s.t.%.%.,.v.c.c.c.D.).2X0XfXxXMXVXMXR.A                                   ",
"                        4 +XT $ ^ g.n.c.:.} g w q %.&.[ %.j.*.:XyXeXyXdXxXxXxXMXNXVXlXnX`.xXJ 3.                                ",
"                        3 k # g b.N...z g 2 8.^.1.d.j.,.#.s.<.b.yXeXeXdXcXxXmXmXZXVXVXxX0XcXw.u                                 ",
"                            K h _.0.u 0.w.~.lXcX].h.[.{.n.$.v.j.wXyXrX0XiXxXmXmXNXNXnXcXD.rX`.D                                 ",
"                              V * p R.R.R.mXnXmX$X:XuXtX:X<.$.<.'.wXfXrX0XdXxXmXNXVXmX$XS.}.).8                                 ",
"                                    VX(.3XMXVX7XOXqXeX:XtX<X*.y.<.F.tXyXrXsXcXxXMXmXcX!.-XS.!.u                                 ",
"                                        1XlX7XQ.`.*XyXwX;XuXn.*.<.l.}.wXsXuXsXdXaXOXc.c.j.b.M.^.7                               ",
"                                        1X7XR.).$X.X,XtX>XtX;X*.j.*.*.v.[.Z.n.c.m.;.( 1.c.m.+X                                  ",
"                                        kX1XQ.M.,X}.J.>X<XtX<Xb.*.j.j.y.s.v.d.d.` 2.m.`.dXrXQ.NX                                ",
"                                        (.1Xq.1.S.K.J.J.XX<X<Xb.1.j.1.:./ T g w $ x 5XdXiX                                      ",
"                                        ~.8Xq._ y.g. X X}.;X*X).9 l k s h V Z G k t x k j                                       ",
"                                          4._ 1.y.B.V./.@X6XaXD * s K @.Y.                                                      ",
"                                          4 / 2.f.d.@X=X9X^.X.8 5.5.                                                            ",
"                                          0 m.} :.( 1.x.9.f # K K                                                               ",
"                                          f ].c._ ..).Q.Q.(.i A Y.                                                              ",
"                                        D / m.2.b.`.*XfX2XnXR.t K                                                               ",
"                                          o.Q.).tXfXD.`.iX3X4Xn Y.                                                              ",
"                                          & 8.dX0XuXfXgXmX3Xd B Y.                                                              ",
"                                          ~.y S ;.7.R.7.H B i T.                                                                "
};
