/* XPM */
static char *_0fc6121e8b647a1c7ea52e0598ada65pWfl8nPbkWYlqCoS[] = {
/* columns rows colors chars-per-pixel */
"64 64 250 2 ",
"   c None",
".  c #020201",
"X  c #01030B",
"o  c #0A0A05",
"O  c #020714",
"+  c #07121C",
"@  c #160F11",
"#  c #291802",
"$  c #381A01",
"%  c #2E1B17",
"&  c #382806",
"*  c #3D351C",
"=  c #2F2D13",
"-  c #0E1726",
";  c #291E22",
":  c #1B252A",
">  c #392827",
",  c #343034",
"<  c #1F201C",
"1  c #4A370B",
"2  c #493818",
"3  c #563917",
"4  c #503D0D",
"5  c #623C08",
"6  c #553E26",
"7  c #443A37",
"8  c #4A3B2F",
"9  c #4A4119",
"0  c #5A441A",
"q  c #6A4705",
"w  c #754D16",
"e  c #7A5617",
"r  c #6E4D0D",
"t  c #49482B",
"y  c #574626",
"u  c #5B512A",
"i  c #4A4836",
"p  c #574C35",
"a  c #5A533A",
"s  c #4F503F",
"d  c #644A26",
"f  c #785B26",
"g  c #644E35",
"h  c #67573A",
"j  c #715C39",
"k  c #685A2A",
"l  c #766538",
"z  c #6C612E",
"x  c #7D630C",
"c  c #323A46",
"v  c #3F4646",
"b  c #494842",
"n  c #585648",
"m  c #5A5652",
"M  c #564E4B",
"N  c #665847",
"B  c #675C53",
"V  c #6F5847",
"C  c #5D614C",
"Z  c #6C6648",
"A  c #776749",
"S  c #6A6555",
"D  c #766955",
"F  c #7A7159",
"G  c #70754F",
"H  c #777566",
"J  c #706E6B",
"K  c #845A19",
"L  c #865708",
"P  c #8D691D",
"I  c #855D22",
"U  c #885E29",
"Y  c #8C652B",
"T  c #8A6626",
"R  c #946A25",
"E  c #976C29",
"W  c #96732D",
"Q  c #9C712D",
"!  c #977525",
"~  c #896834",
"^  c #966C35",
"/  c #9C7433",
"(  c #997838",
")  c #8A722E",
"_  c #A5772B",
"`  c #A27533",
"'  c #A57A35",
"]  c #AC7D34",
"[  c #A37D3A",
"{  c #AB7E38",
"}  c #B07C2F",
"|  c #9B7946",
" . c #857558",
".. c #897048",
"X. c #A47D45",
"o. c #847A6A",
"O. c #8E7F70",
"+. c #AC823C",
"@. c #A9853A",
"#. c #B4853A",
"$. c #B98638",
"%. c #AF923E",
"&. c #C7933C",
"*. c #C58D39",
"=. c #96885C",
"-. c #92824E",
";. c #AA8746",
":. c #B58B42",
">. c #B98C45",
",. c #B89449",
"<. c #B89857",
"1. c #AC8F51",
"2. c #898769",
"3. c #978866",
"4. c #888279",
"5. c #988C75",
"6. c #919271",
"7. c #A79666",
"8. c #B79A66",
"9. c #AF9A73",
"0. c #B7A678",
"q. c #B4AC73",
"w. c #CB9445",
"e. c #CC964A",
"r. c #CC9B4D",
"t. c #C49548",
"y. c #D39543",
"u. c #D49A44",
"i. c #D29D4D",
"p. c #D89543",
"a. c #CD9D53",
"s. c #C69956",
"d. c #D89E56",
"f. c #C9A24B",
"g. c #CDA45B",
"h. c #C7A256",
"j. c #D5A659",
"k. c #D1AB55",
"l. c #E2A75D",
"z. c #C29D69",
"x. c #C8A868",
"c. c #D6AA67",
"v. c #C8B369",
"b. c #D7B36B",
"n. c #CBAD76",
"m. c #CAB678",
"M. c #D8B878",
"N. c #E8A965",
"B. c #E8B768",
"V. c #F6B568",
"C. c #E5B97A",
"Z. c #EFB574",
"A. c #DAC175",
"S. c #CAC07A",
"D. c #E3C47C",
"F. c #EAC879",
"G. c #F8C979",
"H. c #EDD17C",
"J. c #F2D27B",
"K. c #FCD17B",
"L. c #E3C26B",
"P. c #7A7F82",
"I. c #7E8180",
"U. c #928E8B",
"Y. c #A59990",
"T. c #BBB497",
"R. c #B3AB8C",
"E. c #999BA7",
"W. c #AEADB1",
"Q. c #CAB888",
"!. c #D8BB85",
"~. c #C4B894",
"^. c #CEB493",
"/. c #EDB987",
"(. c #C9BCB1",
"). c #DAC588",
"_. c #D9C696",
"`. c #D6CF94",
"'. c #ECCD84",
"]. c #E7C887",
"[. c #F3CD83",
"{. c #F5CB87",
"}. c #ECD287",
"|. c #F4D384",
" X c #FDD584",
".X c #F3D48C",
"XX c #FBDC8B",
"oX c #F8D88C",
"OX c #E4CB92",
"+X c #E6CA98",
"@X c #F6CA93",
"#X c #EBD393",
"$X c #E9D699",
"%X c #F4D492",
"&X c #FDDC94",
"*X c #F3DC9C",
"=X c #FDDC9C",
"-X c #F6D796",
";X c #FEE294",
":X c #FDE39C",
">X c #FFEC9D",
",X c #F9E799",
"<X c #FDEB97",
"1X c #D8C9A6",
"2X c #DDD5A7",
"3X c #DCD7B6",
"4X c #CEC7AE",
"5X c #E9D7A7",
"6X c #F7DCA9",
"7X c #E5D8B6",
"8X c #F7DBB6",
"9X c #EDCEA6",
"0X c #EBE4AA",
"qX c #FEE4A3",
"wX c #FEECA4",
"eX c #FDEBAC",
"rX c #F6E5A8",
"tX c #FEF3A4",
"yX c #FEF3AC",
"uX c #FFF9AD",
"iX c #ECE5B7",
"pX c #FDEDB3",
"aX c #FAE8B9",
"sX c #FEF3B3",
"dX c #FEF4B9",
"fX c #FDFAB9",
"gX c #DDE1B3",
"hX c #DBD8CA",
"jX c #C8CACA",
"kX c #E6DCC9",
"lX c #EDE5C7",
"zX c #F8E8C8",
"xX c #FEFDCB",
"cX c #FEF6C5",
"vX c #EAE6D7",
"bX c #F6ECD5",
"nX c #FBF4D3",
"mX c #FCFDD4",
"MX c #FFFEDB",
"NX c #F9F4D9",
"BX c #EBEAE5",
"VX c #FEFDE3",
"CX c #F3F4EC",
"ZX c #FEFDEB",
"AX c #FCF5E7",
"SX c #FEFDF4",
"DX c #F6FDFE",
"FX c #FDFEFD",
"GX c #F9F8F7",
"HX c #EFF2EF",
/* pixels */
"                              *  .zX^.$ O.                                                                                      ",
"                            t 2.nX+X6X+Xy ..                                                                                    ",
"                              u Q.#X&X=X+X0 h                                                                                   ",
"                            6.1 M.&X[.D.qXeXk 9                                                                                 ",
"                            & rX>XF.J.|.F.#XsXz t                                                                               ",
"                          # Q.,XJ.J.J.[.}.'.}.yXl y                                                                             ",
"                        * 0.wXoXXXJ.&XqX-X;XXXA.pXj y                                                                           ",
"                        6 pXwXF.g.+.{ ;.1.v..XqX*XrXu                                                           S               ",
"                      y 0.sX#XW q K K w 5 5 ^ *X$X$XpX*                                                 5. .n D 4.p             ",
"                      9 pX].) e ^ ^ U Y X.U r ) *X*X$X`.2                                        .p 6 g j 3.^.8XT.2             ",
"                    A -.uX@.q W Y Y ^ ^ U U f r v.rX#XrX9.=                             H a p u A 0._.6XaX6X#XrX_.A i           ",
"                    h   v.r :.T | ~ | ^ U ` ^ q Y qX#X).xX..y                     2.u u A 3.Q.rXpX6X%X}.F.[.oXH.$XnXp 8         ",
"                    h   @.x -.@.^ | ^ e e e e e f M.=X#X6XaXg Z               a 9 z 7.`.sXpXrX].}.}.|.H.J.H.J.K.v.1  .          ",
"                    A   x %.) x I T E @.h.A.A.v.b.v.b.m.m.$XQ.g 8 8 8 U.R.y & -.).wXeX#X}.-X;X;X;X;XXX|.J.J.J.H.*Xf h           ",
"                    A   ) ) ) ,.8.M.XXtXtX<X>XtXtX'.}..XA.M.OX_.Q.O.~ 6 6 0.pXrX:X].C.&X:XM.,.,.%.,.A.XX;X|.H.}..XeX3 5.        ",
"                    G 7.l -.A.rXfXuXtXtXtX<X>XtXtX>XXX|.F.}.:X-X9X6X8XOX+X=X'.oX.X{.:X].W e T q e e e P <.%XqX.X}.:X+X&         ",
"                    a R.1Xq.dXsXqXwXtXtX,XtXwX,XtXtXuXtX>X}.D.'.}.]..XoXXXoXF.F.{.pXC.Y K K I Y f K T f w e <.6X&XC.cX7.8       ",
"                  H S SXNXmX`.sXwXwXrX,XrXsXfXiX0X0X`.0XdXfX6X.X'.XXJ.J.J.J.|.G.=Xc.I w / ^ U [ ( ) Y ( U K f ^ &X=XOX6Xu       ",
"                  = CXCXSXVX7X0XyXrXrXfXdXiX2X`.1XlXzX7X2X9X6XeXD.|.L.F.J.F.&X6Xs.e K ( U I ^ T K ^ ^ Y Y ^ R 5 { qX].eX=.D     ",
"                < 4XCXFXFXSX7X2XsXyXuX0X7X3XlXVXZXZXCXSXAX3X1X+XqX}.|. XG.&X{.X.w Y W T / { / E ;./ R E Q R R E q ,.=X6XQ.p     ",
"              C 6.NXCXSXGXAXbX2XsXyX0XgXlXNXZXZXGXSXFXFXGXZXbX_.).%X.XF.&Xb.K K R W W W ^ R R / R E ` Q E E E E R K b.qX  Z     ",
"              t vXnXCXSXGXGXAX9XdXuXiXlXSXGXSXSXDXFXFXSXFXZXAXzX9Xm.=X{.[.G._ L Q E ^ W ` / ) [ ( ` / ` Q Q Q E P Y / 6X   .    ",
"            G 6.nXbXVXSXCXFXAXkXpX5XiXNXFXFXSXHXDXFXFXFXSXSXZXbXzX_.!.@X|. XG.} K E { ` ` ' Q X.[ / ` ` ` ` ` Q _ K ) !.8XA     ",
"            t gXnXNXCXGXjXHXAXzXaX5XMXZXGXFXHXFXDXFXFXFXFXFXSXAXvXlX_._.-X|.;XF._ Q ' ' ' { ' { ' ' [ ' ' ` ` Q R } q x.  A     ",
"            A xX7XZXHX: X J FXkX1XVXbXAXFXFXFXGXFXFXFXDXDXFXFXGXhXbXlX_.`.#X).>Xb.{ E ' { { ' { #.{ ] ] ' ' _ Q P ! P q.  A     ",
"          o.=.fXiXAXI.O X E.FXAXSXAXBXU.jXGXFXGXFXFXFXFXFXFXDXDXBX3XNX2XQ.*X)..XoX,._ _ { } } $.$.$.] ] @.' ' ' _ _ r m.  k     ",
"          o.7.dXaXVX, X X W.BXSXFX(.@ @ . jXGXGXFXFXFXFXFXFXFXFXvXvXlX5X_.#X}.[.[.a.>.#.} } *.} } $.} @.] @.@.( ! ! ) uX7.A     ",
"          A n.wXaXbX7 X - . U.SXFX, + X P.FXGXGXGXSXFXFXFXFXFXSXhXBXlX5X#X'.[.XXF.a.r.$.} *.w.} $.$.$.#.+.@.@.( W f rX  9       ",
"          2 !.'.+XzX% X @ . J SXGX- O O J E.E.GXFXSXFXFXFXFXFXSXvX7XzXrXM.[. XG.G.e.t.e.} *.*.$.$.>.>.:.+.@.( ( -.6X_.&         ",
"          3 x.D.C.6Xp @ b i i H U.X - - O O , GXFXFXFXDXFXGXDXGXvXlXzX9XC. XK.K.B.r.t.a.e.w.X.] :.{ X.;.;.| 1.Q.5X .a           ",
"          V ;.].C.X.p M m n i i b c O + O X c DXFXFXDXDXFXDXFXHXhXvXaX9X].[.K.K.B.*.d.e.t.c./.=XC.!.b.n.].6XOX9.p U.            ",
"          D ~ M./.5 6 N i s a a M B c O + X : DXGXDXFXDXDXFXDXBXhXNX7X_.#X{.[. Xj.*.a.s.c.>.X.| !.+X8X^.0. .l h                 ",
"          Y.d ].X.5 g a s a p n S m m + : X b FXDXDXDXDXGXGXHXvXvXbX2X_.OX'.oX[.i.i.u.t.x.<.5 ..A V A  . .5.                    ",
"            2 9.6 g h t n n a g M B M , + X E.SXSXSXFXFXGXAXvXkXzX8X_.OX]..X;XB.&.u.r.s.z.8.d NXZXZX                            ",
"            6.2 g V i i n s B V V D B 7 @ J ZXVXZXAXAXAXAXzX8X8X9X+X/.@X|.;XoXk.*.&.i.s.!.d O.ZX                                ",
"            4X# M M s C n n N N V h S 7 @ W.AXzXzXaX8X8X9X/././.Z.Z.].G. X XB.t.u.p.w.c.8.1 zX                                  ",
"            o.* M M p n b B N V j A N , % D 7X^././.C.c.l.N.N.N.N.Z.G.V.K.K.i.&.&.&.i.].1 5.                                    ",
"            M = h g p h M B B N N F B 7 @ p 9X/.Z.N.N.d.d.d.d.d.V.l.V.K.Z.i.&.i.&.u.B.~ N CX                                    ",
"              . Z p p h N N B C C S m > > 6 @X{.Z.V.Z.N.N.V.V.V.V.G.G.l.e.w.t.w.u.N.z.4 hX                                      ",
"              , > S S p S S n F Z H m ; 2 6 C.Z.V.V.V.V.V.V.V.V.V.l.d.w.w.i.f.e.i.s.$ 0.ZX                                      ",
"                o < n J n S H C H J 7 > > 3 t.u.&.p.p.p.p.p.y.y.y.y.w.e.e.e.s.c.d.;.l u 2.                                      ",
"                    . = s n S F S i ; , % d h.$.&.w.p.p.p.p.y.y.&.y.e.w.a.j.s.>.{ C.dX9.u 2 5.Y. .A                             ",
"                            . o . o o o o 0 A.k.w.u.u.u.y.y.y.y.d.i.i.d.a.t.>.>.oX=X!.pXrX7.l ..1.7.3 B                         ",
"                              . o o o # $ z q.,.h.a.h.h.a.i.i.r.w.e.j.j.:.` >.C.{.oX=X=X'.;XpX&XqX%X   .&                       ",
"                                  6.i lXlX1X7.1.1.;.1.;.:.:.$.>.e.t.#.] #.s.j.a.d.b.b.F.&XZ.l.B.r.s.1.                          ",
"                                  C T.MXVXVXnXaXiX`.).m.q.g.x.c.#.#.#.a.a.:.>.>.<.c.c.k.s.r.$.$.} +.1.f y                       ",
"                                2.G cX`.mXlXMXMXMXxXxXxXfXyXeXuX:X:.a.#._ :.#.q f f ;.;.x.b.f.! $ U ].3                         ",
"                                a q.fX0XnXVXVXVXmXmXxXcXdXeXeXuXb.,.h.+.>.h.t.8.^.7.& f ~ | m.n.f # j 2                         ",
"                                Z `.rXS.dXmXNXNXMXmXxXiX0XeXeXwX<.b.@.b..X[.g.].nXiXQ.R.9.y 9._.p H                             ",
"                                y ).#XA.$XmXVXNXmXxXfX0XeXfXwX'.,.@.:.>XwXuX:X$XmXnXmXR.T.R.p 2 B                               ",
"                                y !.A.-X!.xXnXmXxXfXpXrXyXwXA.,.,.%.:XuX;XeX:X`.7XMXMX7X~.ZX                                    ",
"                              8 ^.m.b.h.x.8.OXaXdXsXsXuXtXJ.v.,.,.b.uX&XwXyX,X`.Q.7XlX1X                                        ",
"                                  +XM.x.1.( -.n.x.v./.[.c.%.@.f.%.<XtX<XtX,X#X$XQ.Q.3X4X                                        ",
"                                MXQ.5XdX).m.1.) <.d.c.s.t.h.h.%.k.tXtX<X<XH.}.,Xm.Q.1XkX                                        ",
"                                      iXcX0Xl # w K U ^ ;.<.x.,.v.<X<XXXH.H.J.L.8.0.1X(.                                        ",
"                                      a h j 9 V D B V p a h k 4 ).*X,XJ. X Xf.,.( x.8X(.                                        ",
"                                                      U.o.H N 2 j cX6X@X{.B.N.t.<...3.                                          ",
"                                                            U.4.8  .^.9X@X@Xe.g.,.) 4                                           ",
"                                                              H o.# y 8.0.<.^ >.{ n.0                                           ",
"                                                              U.B t (.Q.Q.!.| ( x.!.d                                           ",
"                                                              H 7 T.nX2XdX0X).q.1.n.....                                        ",
"                                                              4.t 4XgXiX`.S.uXtX!.Q...                                          ",
"                                                              U.b s 3XMX0XfXfX0XdX7.&                                           ",
"                                                                E.i n F 6.R.6.=.V y ~.                                          "
};
